<svg
  class="sp-o-bird"
  viewBox="0 0 418.7 245.7"
  xmlns="http://www.w3.org/2000/svg"
  aria-hidden="true"
>
  <path
    class="sp-o-bird__body"
    d="M418.7 113.4c-.3-1.8-1.8-2.5-3.3-2.6-3.3-.3-6.7-.5-10-.4-1.9 0-2.9-.7-3.8-2.4-7.3-13.9-25.8-23.4-41.9-21.3-9.8 1.2-19.6 3.3-28.1 8.4-9.5 5.6-19.4 7.6-30.2 6.6-1 0-99.4-2.5-100.4-2.6-61.3-4.5-122.5-10-183.7-16-13.8-1.5-11-2.5-16.3 9.4-1.9 4.4-1.2 6.5 3.4 7.3 2.5.4 4.9 1.1 7.3 1.4 8.9 1.1 17.9 1.9 26.8 3.2 34.9 5.1 69.9 10.1 104.7 16.1 2.7.5 4.5 1.3 5.1 4.4 1.7 9.2 4.9 18 7.9 26.8 4.3 12.8 11.5 23.6 21.8 32.3 14.8 12.5 31.3 21.9 49.5 28.6 1.4.5 3.4.2 4.3 2.4-8.8 7.6-17.6 15.2-26.3 22.9-1.3 1.2-4.1 2.5-2.2 4.6 1.7 1.9 3.3-.5 4.6-1.5 8.7-7 17.4-14 25.7-21.4 3.9-3.5 7.6-4.5 12.9-2.3-8.7 7.5-17 14.8-25.4 22.1-1.1 1-2.2 2-3.2 3.1-.7.8-1 1.8-.1 2.7.7.7 1.6.5 2.3.1 1.3-.8 2.5-1.7 3.6-2.7 8.4-6.9 16.9-13.6 24.9-20.8 4-3.6 7.9-4.8 13-4.1 9.7 1.3 19.3.1 28.8-2 28.8-6.3 52.6-22.2 75.3-39.9 13.7-10.6 26.1-22.7 32.4-39.3 3.5-9.2 7.3-16.8 17.6-19.1.3-.1.6-.3.9-.5 1.2-.8 2.4-1.7 2.1-3.5z"
  />
  <path
    class="sp-o-bird__body-outline"
    d="M418.7 113.4c-.3-1.8-1.8-2.5-3.3-2.6-3.3-.3-6.7-.5-10-.4-1.9 0-2.9-.7-3.8-2.4-7.3-13.9-25.8-23.4-41.9-21.3-9.8 1.2-19.6 3.3-28.1 8.4-9.5 5.6-19.4 7.6-30.2 6.6-1 0-99.4-2.5-100.4-2.6-61.3-4.5-122.5-10-183.7-16-13.8-1.5-11-2.5-16.3 9.4-1.9 4.4-1.2 6.5 3.4 7.3 2.5.4 4.9 1.1 7.3 1.4 8.9 1.1 17.9 1.9 26.8 3.2 34.9 5.1 69.9 10.1 104.7 16.1 2.7.5 4.5 1.3 5.1 4.4 1.7 9.2 4.9 18 7.9 26.8 4.3 12.8 11.5 23.6 21.8 32.3 14.8 12.5 31.3 21.9 49.5 28.6 1.4.5 3.4.2 4.3 2.4-8.8 7.6-17.6 15.2-26.3 22.9-1.3 1.2-4.1 2.5-2.2 4.6 1.7 1.9 3.3-.5 4.6-1.5 8.7-7 17.4-14 25.7-21.4 3.9-3.5 7.6-4.5 12.9-2.3-8.7 7.5-17 14.8-25.4 22.1-1.1 1-2.2 2-3.2 3.1-.7.8-1 1.8-.1 2.7.7.7 1.6.5 2.3.1 1.3-.8 2.5-1.7 3.6-2.7 8.4-6.9 16.9-13.6 24.9-20.8 4-3.6 7.9-4.8 13-4.1 9.7 1.3 19.3.1 28.8-2 28.8-6.3 52.6-22.2 75.3-39.9 13.7-10.6 26.1-22.7 32.4-39.3 3.5-9.2 7.3-16.8 17.6-19.1.3-.1.6-.3.9-.5 1.2-.8 2.4-1.7 2.1-3.5zM395 130.9c-15.8 27.9-39.2 47.6-67.3 62.2-42.3 21.9-84.8 21.7-127 .1-19.3-9.9-34.5-24-41.2-45.4-2.6-8.2-4.3-16.8-6.2-25.2-.9-3.9-2.8-6-6.9-6.6-10-1.4-20.1-2.4-30.1-4-17.7-2.8-35.6-4.3-53.2-7.7-17.3-3.3-35.1-4-52.4-7.8-1.7-.4-5.4.7-4.7-2.4.7-3 1.7-7.2 6.5-6.9 7 .4 14 .8 21 1.3 41.9 3.1 83.5 8.3 125.3 12.5 16.2 1.6 126.4 5.7 142.6 7.1 9.7.2 18.7-2.2 27.6-6 9.4-4.1 18.4-9.5 29.1-10 12.4-.7 23.4 2.5 32.6 11.1 9 8.2 10.4 16.9 4.3 27.7z"
  />
  <path
    class="sp-o-bird__eye"
    d="M366.4 111.6c-.2 2.9-1.6 4.7-4.3 4.7-3 .1-4.6-1.9-4.5-4.7.1-2.7 1.6-5 4.5-4.9 2.9.1 3.9 2.5 4.3 4.9z"
  />
  <path
    class="sp-o-bird__dots"
    d="M224.2 182c0 1.2.1 2.3 0 3.5-.3 2.1-1.3 3.9-3.8 3.8-2.4-.1-2.7-2.2-2.9-4-.2-2.6-.2-5.3-.2-8 0-1.8.4-3.4 2.5-3.8 2.3-.4 3.4 1.2 3.9 3 .5 1.7.5 3.6.8 5.4-.1.1-.2.1-.3.1zm24.2-.8c-.6 2.6.8 6.9-3.4 7-3.8 0-3.7-4.1-3.8-7-.1-3-.8-7.4 3.4-7.5 4.5 0 3.4 4.5 3.8 7.5zm-20-10.2c0-3.3.2-6.2 3.4-6.4 2.9-.2 3.4 2.6 3.6 5v.5c.7 3.5 1.5 8.3-2.9 8.5-4.2.2-3.5-5-4.1-7.6zm8.9 19.3c-.1 1.2 0 2.2-.2 3.1-.4 1.9-1.1 3.7-3.3 3.7-1.9 0-2.5-1.9-3-3.5-.3-.9-.4-1.9-.4-2.9 0-3-.1-7 3.5-7.1 4.2-.1 3 4.2 3.4 6.7zM54.9 100.3c-2-.2-3.9-.1-3.3-2.3.7-2.5 2.4-4.3 5.2-4.4 1.8 0 3.6.7 3.1 2.8-.6 2.7-2.8 3.8-5 3.9zm15.7-4.8c2.9.7 4.1 3 4.6 5.7.3 1.6-.9 2.1-2.2 1.8-2.8-.5-5.2-1.6-5.4-4.9-.1-1.7 1.1-2.5 3-2.6zm-51.5-.7c-.2 2-1.8 1.6-3 1.4-2.7-.5-4.6-2.1-4.6-5 0-1.8 1.2-2.8 3-2.4 3.1.7 4 3.2 4.6 6zm81.9 9.5c.3 1.6-.7 2-2 2-3-.1-5.1-1.5-5.5-4.6-.2-1.7.7-3.2 2.5-2.9 2.9.5 4.1 2.9 5 5.5zm-18.5-.9c-1.3-.2-3.3.3-2.9-1.8.5-2.7 2.1-4.5 5.2-4.3 1.6.1 3.3.6 3.1 2.4-.3 3.2-3 3.5-5.4 3.7zm-39.8-11c2.7.7 4 2.8 4.3 5.4.3 2.2-1.6 1.7-2.8 1.6-2.7-.2-4.4-1.8-4.6-4.4-.2-1.9 1.2-2.6 3.1-2.6zm70.7 10.8c-.4 3.1-2.9 3.5-5.1 3.7-1.2.1-3 0-2.8-1.9.3-2.5 2-4.1 4.6-4.4 1.9-.3 3.1.6 3.3 2.6zm-86.9-6.7c-1.2-.3-3.2.4-2.8-1.7.4-2.4 2-4.1 4.7-4.3 1.7-.1 3.1.6 3 2.4-.2 3.1-2.7 3.4-4.9 3.6z"
  />
  <path
    class="sp-o-bird__wing-1"
    d="M181 31.5c.9-8.5 1.7-17.1 4-25.6 1.7-6.3 3.3-7.2 9.3-4.5 23.3 10.8 47.3 20.8 63.8 39.9 11 12.8 24.1 33.7 26.9 49.9.4 2.5-.8-2.4 0 0 1.4 7.5 2.3 15.2 2.4 22.9.2 16.8-4.1 33.4-8.7 49.8-.9 3.1-2.3 7-7.5 4.8-.8-.6.9.4 0 0-17.8-8.1-34.9-20.9-47.1-35-13-15-26.5-29.6-33.5-48.2-6.6-17.3-10.8-35.1-9.6-54z"
  />
  <path
    class="sp-o-bird__wing-2"
    d="M242.1 29.2c2.8-6.7 5.6-13.5 9.3-19.8 2.8-4.6 4.2-4.9 7.8-.9 13.9 15.6 28.5 30.8 35.4 51.2 4.6 13.7 8.6 34.6 6.5 48.7-.3 2.1 0-2.2 0 0-.9 6.6-2.2 13.1-4.1 19.5-4.2 13.8-11.4 26.1-18.9 38.3-1.4 2.3-3.4 5-6.6 1.8-.4-.7.5.6 0 0-10.6-11.8-19.6-27.3-24.7-42.4-5.4-16.1-11.4-31.9-11.7-49.2-.2-16.2 1.3-32 7-47.2z"
  />
</svg>
