<svg id="Layer_1" data-name="Layer 1" xmlns="http://www.w3.org/2000/svg" viewBox="0 0 405.25 308.36">
  <defs>
    <pattern id="squash" data-name="squash" width="46.28" height="56.23" patternTransform="matrix(1.01 0 0 1.01 34.22 12.21)" patternUnits="userSpaceOnUse">
      <path class="cls-1" d="M0 0h46.28v56.23H0z"/>
      <path class="cls-3" d="M18.67 69.89a5 5 0 0 0 4 1.72A8.25 8.25 0 0 0 29 68.73c2.46-2.89 2.56-6.76 0-10.39-3.11-4.44-5.93-5.14-11-2a5.68 5.68 0 0 0-2.73 5.29 12.4 12.4 0 0 0 3.4 8.26Zm2.8-11.37a3.92 3.92 0 0 1 3.67.2c1.86 1.08 3.07 4.54 2.33 6.56a3.48 3.48 0 0 1-3 2.35c-1.35.16-1.95-.81-2.54-1.8a8.47 8.47 0 0 1-1.6-4.44c-.09-1.31.01-2.39 1.14-2.87ZM53.66 40.41C57 37.36 58.71 33.66 58 29c-.67-4.28-3.1-7.43-8-8.15-5.62-.85-9.12 1.47-11.52 6.15-1.58 3.09-1.4 6.25-.5 9.58 1.11 4.15 4.4 6.2 9.18 6.06a10.4 10.4 0 0 0 6.5-2.23Zm-9.21-15a5.37 5.37 0 0 1 8.81 3.3 15.38 15.38 0 0 1-.67 7.58c-.67 2.07-3.06 3.08-5.56 2.59-3.35-.67-4.94-2.53-5.1-6V31.7c-.11-2.46.42-4.7 2.52-6.28ZM7.38 40.41c3.35-3 5.05-6.75 4.31-11.45-.66-4.28-3.09-7.43-8-8.15C-1.9 20-5.4 22.32-7.8 27c-1.58 3.09-1.4 6.25-.51 9.58 1.12 4.15 4.41 6.2 9.19 6.06a10.4 10.4 0 0 0 6.5-2.23Zm-9.21-15A5.37 5.37 0 0 1 7 28.72a15.38 15.38 0 0 1-.67 7.58c-.67 2.07-3.06 3.08-5.56 2.59-3.35-.67-4.94-2.53-5.1-6v-1.18c-.13-2.47.4-4.71 2.5-6.29ZM38.79 12c.23 4.93 2.77 7.39 8.09 7.61a59.46 59.46 0 0 0 7.78-.28A5.56 5.56 0 0 0 60 14.89C62 7.12 55.13.08 46.54 1.12c-5.3.65-7 2.31-7.61 7.25-.05 1.19-.19 2.39-.14 3.63Zm6-.41c.21-2.8 2.21-5 4.61-4.79a17 17 0 0 1 5 1.21c2 .81 2.3 2.22 1.3 4-1.48 2.56-3.56 3.46-7 3-2.96-.36-4.1-1.37-3.95-3.47ZM18.67 13.66a5 5 0 0 0 4 1.72A8.25 8.25 0 0 0 29 12.5c2.46-2.9 2.56-6.76 0-10.39C26-2.33 23.13-3 18.08.15a5.68 5.68 0 0 0-2.73 5.29 12.4 12.4 0 0 0 3.32 8.22Zm2.8-11.37a3.92 3.92 0 0 1 3.67.2C27 3.57 28.21 7 27.47 9.05a3.48 3.48 0 0 1-3 2.35c-1.35.16-1.95-.81-2.54-1.8a8.47 8.47 0 0 1-1.6-4.44c-.09-1.31.01-2.38 1.14-2.87ZM36 56.66c4.41.87 8.94-3.4 8.34-7.84a10.08 10.08 0 0 0-4.64-7.22 6 6 0 0 0-3.14-.94 7.5 7.5 0 0 0-7.41 7.56c.28 5.04 2.3 7.54 6.85 8.44Zm2-4.14c-2 1.43-4.07.66-4.4-1.81a10.36 10.36 0 0 1 .3-4c.36-1.38 1.33-1.82 2.73-1.85a2.42 2.42 0 0 1 2.47 1.86c.29.82.45 1.69.66 2.53A3.68 3.68 0 0 1 38 52.52ZM28.33 35.11c4.49-.67 6.48-3 6.11-7.55a47.81 47.81 0 0 0-1.09-6.51 5 5 0 0 0-4.6-4.05 10.08 10.08 0 0 0-11.17 12.66c1.16 4.39 2.87 5.68 7.45 5.69 1.1-.08 2.21-.07 3.3-.24Zm-1-5c-2.55.1-4.78-1.37-4.85-3.44a13.36 13.36 0 0 1 .58-4.31c.53-1.74 1.78-2.16 3.49-1.48 2.5 1 3.55 2.65 3.53 5.6-.02 2.52-.83 3.58-2.76 3.66ZM19.45 53.9c4.8-.25 7-2.09 6.87-5.84a32.11 32.11 0 0 0-.81-5.47c-.46-2.05-2.1-3.26-4.65-3.68-7.72-1.26-14.11 3.72-12.5 9.75 1 3.72 2.73 4.9 7.59 5.21 1.17.02 2.35.13 3.5.03Zm-.8-4.19c-2.71-.08-5-1.45-4.95-3.17a8.79 8.79 0 0 1 .84-3.54c.65-1.4 2-1.66 3.77-1 2.6 1 3.62 2.43 3.44 4.87-.15 2.13-1.05 2.91-3.1 2.84ZM-7.49 12c.23 4.93 2.77 7.39 8.09 7.61a59.46 59.46 0 0 0 7.78-.28 5.56 5.56 0 0 0 5.35-4.39C15.75 7.12 8.85.08.26 1.12c-5.3.65-7 2.31-7.61 7.25-.05 1.19-.19 2.39-.14 3.63Zm6-.41c.2-2.75 2.2-4.95 4.65-4.74A17.12 17.12 0 0 1 8.1 8c2 .81 2.3 2.22 1.3 4-1.48 2.56-3.56 3.46-7 3-2.94-.35-4.08-1.36-3.93-3.46ZM36 .43c4.43.87 9-3.43 8.36-7.84a10.08 10.08 0 0 0-4.66-7.22 6 6 0 0 0-3.14-.94A7.5 7.5 0 0 0 29.15-8c.28 5 2.3 7.53 6.85 8.43Zm2-4.14c-2 1.43-4.07.66-4.4-1.81a10.36 10.36 0 0 1 .3-4c.36-1.38 1.33-1.82 2.73-1.85a2.42 2.42 0 0 1 2.43 1.87c.29.82.45 1.69.66 2.53A3.68 3.68 0 0 1 38-3.71Z"/>
    </pattern>
    <pattern id="line" data-name="line" width="42.6" height="61.4" patternTransform="rotate(-176.67 -24.758 -18.161) scale(.36)" patternUnits="userSpaceOnUse">
      <path class="cls-1" d="M0 0h42.6v61.4H0z"/>
      <path class="cls-2" d="M40.75 39c0 .77.1 1.55.14 2.32 0 .6-.13.78-.73.87l-1.55.25c-.26 0-.36 0-.39-.32s0-.6 0-.91c-.07-1.31-.13-2.63-.23-3.94-.11-1.58-.25-3.16-.39-4.74-.09-1-.21-1.92-.31-2.87-.16-2-.33-3.94-.49-5.9-.11-1.33-.22-2.66-.32-4 0-.52.08-.69.57-.78.33-.06.67-.08 1-.12a.47.47 0 0 1 .52.31 2 2 0 0 1 .13.48c.23 1.79.5 3.58.68 5.38.41 4.7 1.09 9.34 1.37 13.97ZM19.45 39c0 .77.1 1.55.14 2.32 0 .6-.13.78-.73.87l-1.55.25c-.26 0-.36 0-.38-.32s0-.6 0-.91c-.07-1.31-.13-2.63-.23-3.94-.11-1.58-.25-3.16-.39-4.74-.09-1-.2-1.92-.31-2.87q-.25-3-.5-5.9c-.11-1.33-.22-2.66-.32-4 0-.52.08-.69.57-.78.33-.06.67-.08 1-.12a.47.47 0 0 1 .52.31 2 2 0 0 1 .13.48c.23 1.79.5 3.58.68 5.38.41 4.7 1.09 9.34 1.37 13.97ZM25.78 20.2c0 .78.06 1.55.08 2.33 0 .59-.15.77-.75.85l-1.56.2c-.27 0-.36 0-.38-.33s0-.6 0-.91c0-1.31-.05-2.63-.11-3.94-.07-1.59-.16-3.17-.26-4.75-.06-1-.15-1.92-.22-2.88l-.33-5.92c-.07-1.33-.14-2.66-.2-4 0-.52.1-.69.59-.76.33-.06.67-.07 1-.1a.46.46 0 0 1 .51.33 1.6 1.6 0 0 1 .12.49c.18 1.79.4 3.59.52 5.39.3 4.67.85 9.32.99 14ZM31.91 58.15c0 .78 0 1.55-.06 2.33 0 .59-.2.76-.8.8l-1.57.11c-.27 0-.36 0-.36-.35s.06-.6.07-.91c0-1.31.1-2.63.12-3.94V38.62c0-.52.14-.68.64-.73h1a.45.45 0 0 1 .49.35 1.7 1.7 0 0 1 .09.5c.08 1.8.19 3.61.2 5.41.04 4.65.32 9.32.18 14ZM4.48 20.2c0 .78.06 1.55.08 2.33 0 .59-.15.77-.75.85l-1.56.2c-.27 0-.36 0-.38-.33s0-.6 0-.91c0-1.31 0-2.63-.11-3.94-.07-1.59-.16-3.17-.26-4.75-.06-1-.15-1.92-.22-2.88L.92 4.85C.85 3.52.78 2.19.72.86c0-.52.1-.69.59-.76C1.64 0 2 0 2.32 0a.46.46 0 0 1 .51.33A1.6 1.6 0 0 1 3 .82c.18 1.79.4 3.59.52 5.39.27 4.66.82 9.31.96 13.99ZM10.61 58.15c0 .78 0 1.55-.06 2.33 0 .59-.2.76-.8.8l-1.57.11c-.27 0-.36 0-.35-.35s0-.6.06-.91c.05-1.31.1-2.63.12-3.94C8 54.6 8 53 8 51.43V38.62c0-.52.14-.68.64-.73h1a.45.45 0 0 1 .49.35 1.7 1.7 0 0 1 .09.5c.08 1.8.19 3.61.2 5.41.06 4.65.33 9.32.19 14Z"/>
    </pattern>
    <pattern id="line-3" data-name="line" width="42.6" height="61.4" patternTransform="matrix(-.36 .02 .02 .36 -11.96 40.08)" patternUnits="userSpaceOnUse">
      <path class="cls-1" d="M0 0h42.6v61.4H0z"/>
      <path class="cls-2" d="M40.75 39c0 .77.1 1.55.14 2.32 0 .6-.13.78-.73.87l-1.55.25c-.26 0-.36 0-.39-.32s0-.6 0-.91c-.07-1.31-.13-2.63-.23-3.94-.11-1.58-.25-3.16-.39-4.74-.09-1-.21-1.92-.31-2.87-.16-2-.33-3.94-.49-5.9-.11-1.33-.22-2.66-.32-4 0-.52.08-.69.57-.78.33-.06.67-.08 1-.12a.47.47 0 0 1 .52.31 2 2 0 0 1 .13.48c.23 1.79.5 3.58.68 5.38.41 4.7 1.09 9.34 1.37 13.97ZM19.45 39c0 .77.1 1.55.14 2.32 0 .6-.13.78-.73.87l-1.55.25c-.26 0-.36 0-.38-.32s0-.6 0-.91c-.07-1.31-.13-2.63-.23-3.94-.11-1.58-.25-3.16-.39-4.74-.09-1-.2-1.92-.31-2.87q-.25-3-.5-5.9c-.11-1.33-.22-2.66-.32-4 0-.52.08-.69.57-.78.33-.06.67-.08 1-.12a.47.47 0 0 1 .52.31 2 2 0 0 1 .13.48c.23 1.79.5 3.58.68 5.38.41 4.7 1.09 9.34 1.37 13.97ZM25.78 20.2c0 .78.06 1.55.08 2.33 0 .59-.15.77-.75.85l-1.56.2c-.27 0-.36 0-.38-.33s0-.6 0-.91c0-1.31-.05-2.63-.11-3.94-.07-1.59-.16-3.17-.26-4.75-.06-1-.15-1.92-.22-2.88l-.33-5.92c-.07-1.33-.14-2.66-.2-4 0-.52.1-.69.59-.76.33-.06.67-.07 1-.1a.46.46 0 0 1 .51.33 1.6 1.6 0 0 1 .12.49c.18 1.79.4 3.59.52 5.39.3 4.67.85 9.32.99 14ZM31.91 58.15c0 .78 0 1.55-.06 2.33 0 .59-.2.76-.8.8l-1.57.11c-.27 0-.36 0-.36-.35s.06-.6.07-.91c0-1.31.1-2.63.12-3.94V38.62c0-.52.14-.68.64-.73h1a.45.45 0 0 1 .49.35 1.7 1.7 0 0 1 .09.5c.08 1.8.19 3.61.2 5.41.04 4.65.32 9.32.18 14ZM4.48 20.2c0 .78.06 1.55.08 2.33 0 .59-.15.77-.75.85l-1.56.2c-.27 0-.36 0-.38-.33s0-.6 0-.91c0-1.31 0-2.63-.11-3.94-.07-1.59-.16-3.17-.26-4.75-.06-1-.15-1.92-.22-2.88L.92 4.85C.85 3.52.78 2.19.72.86c0-.52.1-.69.59-.76C1.64 0 2 0 2.32 0a.46.46 0 0 1 .51.33A1.6 1.6 0 0 1 3 .82c.18 1.79.4 3.59.52 5.39.27 4.66.82 9.31.96 13.99ZM10.61 58.15c0 .78 0 1.55-.06 2.33 0 .59-.2.76-.8.8l-1.57.11c-.27 0-.36 0-.35-.35s0-.6.06-.91c.05-1.31.1-2.63.12-3.94C8 54.6 8 53 8 51.43V38.62c0-.52.14-.68.64-.73h1a.45.45 0 0 1 .49.35 1.7 1.7 0 0 1 .09.5c.08 1.8.19 3.61.2 5.41.06 4.65.33 9.32.19 14Z"/>
    </pattern>
    <pattern id="line-5" data-name="line" width="42.6" height="61.4" patternTransform="matrix(-.11 .43 .43 .11 101.04 43.59)" patternUnits="userSpaceOnUse">
      <path class="cls-1" d="M0 0h42.6v61.4H0z"/>
      <path class="cls-2" d="M40.75 39c0 .77.1 1.55.14 2.32 0 .6-.13.78-.73.87l-1.55.25c-.26 0-.36 0-.39-.32s0-.6 0-.91c-.07-1.31-.13-2.63-.23-3.94-.11-1.58-.25-3.16-.39-4.74-.09-1-.21-1.92-.31-2.87-.16-2-.33-3.94-.49-5.9-.11-1.33-.22-2.66-.32-4 0-.52.08-.69.57-.78.33-.06.67-.08 1-.12a.47.47 0 0 1 .52.31 2 2 0 0 1 .13.48c.23 1.79.5 3.58.68 5.38.41 4.7 1.09 9.34 1.37 13.97ZM19.45 39c0 .77.1 1.55.14 2.32 0 .6-.13.78-.73.87l-1.55.25c-.26 0-.36 0-.38-.32s0-.6 0-.91c-.07-1.31-.13-2.63-.23-3.94-.11-1.58-.25-3.16-.39-4.74-.09-1-.2-1.92-.31-2.87q-.25-3-.5-5.9c-.11-1.33-.22-2.66-.32-4 0-.52.08-.69.57-.78.33-.06.67-.08 1-.12a.47.47 0 0 1 .52.31 2 2 0 0 1 .13.48c.23 1.79.5 3.58.68 5.38.41 4.7 1.09 9.34 1.37 13.97ZM25.78 20.2c0 .78.06 1.55.08 2.33 0 .59-.15.77-.75.85l-1.56.2c-.27 0-.36 0-.38-.33s0-.6 0-.91c0-1.31-.05-2.63-.11-3.94-.07-1.59-.16-3.17-.26-4.75-.06-1-.15-1.92-.22-2.88l-.33-5.92c-.07-1.33-.14-2.66-.2-4 0-.52.1-.69.59-.76.33-.06.67-.07 1-.1a.46.46 0 0 1 .51.33 1.6 1.6 0 0 1 .12.49c.18 1.79.4 3.59.52 5.39.3 4.67.85 9.32.99 14ZM31.91 58.15c0 .78 0 1.55-.06 2.33 0 .59-.2.76-.8.8l-1.57.11c-.27 0-.36 0-.36-.35s.06-.6.07-.91c0-1.31.1-2.63.12-3.94V38.62c0-.52.14-.68.64-.73h1a.45.45 0 0 1 .49.35 1.7 1.7 0 0 1 .09.5c.08 1.8.19 3.61.2 5.41.04 4.65.32 9.32.18 14ZM4.48 20.2c0 .78.06 1.55.08 2.33 0 .59-.15.77-.75.85l-1.56.2c-.27 0-.36 0-.38-.33s0-.6 0-.91c0-1.31 0-2.63-.11-3.94-.07-1.59-.16-3.17-.26-4.75-.06-1-.15-1.92-.22-2.88L.92 4.85C.85 3.52.78 2.19.72.86c0-.52.1-.69.59-.76C1.64 0 2 0 2.32 0a.46.46 0 0 1 .51.33A1.6 1.6 0 0 1 3 .82c.18 1.79.4 3.59.52 5.39.27 4.66.82 9.31.96 13.99ZM10.61 58.15c0 .78 0 1.55-.06 2.33 0 .59-.2.76-.8.8l-1.57.11c-.27 0-.36 0-.35-.35s0-.6.06-.91c.05-1.31.1-2.63.12-3.94C8 54.6 8 53 8 51.43V38.62c0-.52.14-.68.64-.73h1a.45.45 0 0 1 .49.35 1.7 1.7 0 0 1 .09.5c.08 1.8.19 3.61.2 5.41.06 4.65.33 9.32.19 14Z"/>
    </pattern>
    <pattern id="squash-3" data-name="squash" width="46.28" height="56.23" patternTransform="matrix(-.69 .03 .03 .69 87.32 70.39)" patternUnits="userSpaceOnUse">
      <path class="cls-1" d="M0 0h46.28v56.23H0z"/>
      <path class="cls-3" d="M18.67 69.89a5 5 0 0 0 4 1.72A8.25 8.25 0 0 0 29 68.73c2.46-2.89 2.56-6.76 0-10.39-3.11-4.44-5.93-5.14-11-2a5.68 5.68 0 0 0-2.73 5.29 12.4 12.4 0 0 0 3.4 8.26Zm2.8-11.37a3.92 3.92 0 0 1 3.67.2c1.86 1.08 3.07 4.54 2.33 6.56a3.48 3.48 0 0 1-3 2.35c-1.35.16-1.95-.81-2.54-1.8a8.47 8.47 0 0 1-1.6-4.44c-.09-1.31.01-2.39 1.14-2.87ZM53.66 40.41C57 37.36 58.71 33.66 58 29c-.67-4.28-3.1-7.43-8-8.15-5.62-.85-9.12 1.47-11.52 6.15-1.58 3.09-1.4 6.25-.5 9.58 1.11 4.15 4.4 6.2 9.18 6.06a10.4 10.4 0 0 0 6.5-2.23Zm-9.21-15a5.37 5.37 0 0 1 8.81 3.3 15.38 15.38 0 0 1-.67 7.58c-.67 2.07-3.06 3.08-5.56 2.59-3.35-.67-4.94-2.53-5.1-6V31.7c-.11-2.46.42-4.7 2.52-6.28ZM7.38 40.41c3.35-3 5.05-6.75 4.31-11.45-.66-4.28-3.09-7.43-8-8.15C-1.9 20-5.4 22.32-7.8 27c-1.58 3.09-1.4 6.25-.51 9.58 1.12 4.15 4.41 6.2 9.19 6.06a10.4 10.4 0 0 0 6.5-2.23Zm-9.21-15A5.37 5.37 0 0 1 7 28.72a15.38 15.38 0 0 1-.67 7.58c-.67 2.07-3.06 3.08-5.56 2.59-3.35-.67-4.94-2.53-5.1-6v-1.18c-.13-2.47.4-4.71 2.5-6.29ZM38.79 12c.23 4.93 2.77 7.39 8.09 7.61a59.46 59.46 0 0 0 7.78-.28A5.56 5.56 0 0 0 60 14.89C62 7.12 55.13.08 46.54 1.12c-5.3.65-7 2.31-7.61 7.25-.05 1.19-.19 2.39-.14 3.63Zm6-.41c.21-2.8 2.21-5 4.61-4.79a17 17 0 0 1 5 1.21c2 .81 2.3 2.22 1.3 4-1.48 2.56-3.56 3.46-7 3-2.96-.36-4.1-1.37-3.95-3.47ZM18.67 13.66a5 5 0 0 0 4 1.72A8.25 8.25 0 0 0 29 12.5c2.46-2.9 2.56-6.76 0-10.39C26-2.33 23.13-3 18.08.15a5.68 5.68 0 0 0-2.73 5.29 12.4 12.4 0 0 0 3.32 8.22Zm2.8-11.37a3.92 3.92 0 0 1 3.67.2C27 3.57 28.21 7 27.47 9.05a3.48 3.48 0 0 1-3 2.35c-1.35.16-1.95-.81-2.54-1.8a8.47 8.47 0 0 1-1.6-4.44c-.09-1.31.01-2.38 1.14-2.87ZM36 56.66c4.41.87 8.94-3.4 8.34-7.84a10.08 10.08 0 0 0-4.64-7.22 6 6 0 0 0-3.14-.94 7.5 7.5 0 0 0-7.41 7.56c.28 5.04 2.3 7.54 6.85 8.44Zm2-4.14c-2 1.43-4.07.66-4.4-1.81a10.36 10.36 0 0 1 .3-4c.36-1.38 1.33-1.82 2.73-1.85a2.42 2.42 0 0 1 2.47 1.86c.29.82.45 1.69.66 2.53A3.68 3.68 0 0 1 38 52.52ZM28.33 35.11c4.49-.67 6.48-3 6.11-7.55a47.81 47.81 0 0 0-1.09-6.51 5 5 0 0 0-4.6-4.05 10.08 10.08 0 0 0-11.17 12.66c1.16 4.39 2.87 5.68 7.45 5.69 1.1-.08 2.21-.07 3.3-.24Zm-1-5c-2.55.1-4.78-1.37-4.85-3.44a13.36 13.36 0 0 1 .58-4.31c.53-1.74 1.78-2.16 3.49-1.48 2.5 1 3.55 2.65 3.53 5.6-.02 2.52-.83 3.58-2.76 3.66ZM19.45 53.9c4.8-.25 7-2.09 6.87-5.84a32.11 32.11 0 0 0-.81-5.47c-.46-2.05-2.1-3.26-4.65-3.68-7.72-1.26-14.11 3.72-12.5 9.75 1 3.72 2.73 4.9 7.59 5.21 1.17.02 2.35.13 3.5.03Zm-.8-4.19c-2.71-.08-5-1.45-4.95-3.17a8.79 8.79 0 0 1 .84-3.54c.65-1.4 2-1.66 3.77-1 2.6 1 3.62 2.43 3.44 4.87-.15 2.13-1.05 2.91-3.1 2.84ZM-7.49 12c.23 4.93 2.77 7.39 8.09 7.61a59.46 59.46 0 0 0 7.78-.28 5.56 5.56 0 0 0 5.35-4.39C15.75 7.12 8.85.08.26 1.12c-5.3.65-7 2.31-7.61 7.25-.05 1.19-.19 2.39-.14 3.63Zm6-.41c.2-2.75 2.2-4.95 4.65-4.74A17.12 17.12 0 0 1 8.1 8c2 .81 2.3 2.22 1.3 4-1.48 2.56-3.56 3.46-7 3-2.94-.35-4.08-1.36-3.93-3.46ZM36 .43c4.43.87 9-3.43 8.36-7.84a10.08 10.08 0 0 0-4.66-7.22 6 6 0 0 0-3.14-.94A7.5 7.5 0 0 0 29.15-8c.28 5 2.3 7.53 6.85 8.43Zm2-4.14c-2 1.43-4.07.66-4.4-1.81a10.36 10.36 0 0 1 .3-4c.36-1.38 1.33-1.82 2.73-1.85a2.42 2.42 0 0 1 2.43 1.87c.29.82.45 1.69.66 2.53A3.68 3.68 0 0 1 38-3.71Z"/>
    </pattern>
    <pattern id="squash-5" data-name="squash" width="46.28" height="56.23" patternTransform="matrix(-.69 .03 .03 .69 93 46.61)" patternUnits="userSpaceOnUse">
      <path class="cls-1" d="M0 0h46.28v56.23H0z"/>
      <path class="cls-3" d="M18.67 69.89a5 5 0 0 0 4 1.72A8.25 8.25 0 0 0 29 68.73c2.46-2.89 2.56-6.76 0-10.39-3.11-4.44-5.93-5.14-11-2a5.68 5.68 0 0 0-2.73 5.29 12.4 12.4 0 0 0 3.4 8.26Zm2.8-11.37a3.92 3.92 0 0 1 3.67.2c1.86 1.08 3.07 4.54 2.33 6.56a3.48 3.48 0 0 1-3 2.35c-1.35.16-1.95-.81-2.54-1.8a8.47 8.47 0 0 1-1.6-4.44c-.09-1.31.01-2.39 1.14-2.87ZM53.66 40.41C57 37.36 58.71 33.66 58 29c-.67-4.28-3.1-7.43-8-8.15-5.62-.85-9.12 1.47-11.52 6.15-1.58 3.09-1.4 6.25-.5 9.58 1.11 4.15 4.4 6.2 9.18 6.06a10.4 10.4 0 0 0 6.5-2.23Zm-9.21-15a5.37 5.37 0 0 1 8.81 3.3 15.38 15.38 0 0 1-.67 7.58c-.67 2.07-3.06 3.08-5.56 2.59-3.35-.67-4.94-2.53-5.1-6V31.7c-.11-2.46.42-4.7 2.52-6.28ZM7.38 40.41c3.35-3 5.05-6.75 4.31-11.45-.66-4.28-3.09-7.43-8-8.15C-1.9 20-5.4 22.32-7.8 27c-1.58 3.09-1.4 6.25-.51 9.58 1.12 4.15 4.41 6.2 9.19 6.06a10.4 10.4 0 0 0 6.5-2.23Zm-9.21-15A5.37 5.37 0 0 1 7 28.72a15.38 15.38 0 0 1-.67 7.58c-.67 2.07-3.06 3.08-5.56 2.59-3.35-.67-4.94-2.53-5.1-6v-1.18c-.13-2.47.4-4.71 2.5-6.29ZM38.79 12c.23 4.93 2.77 7.39 8.09 7.61a59.46 59.46 0 0 0 7.78-.28A5.56 5.56 0 0 0 60 14.89C62 7.12 55.13.08 46.54 1.12c-5.3.65-7 2.31-7.61 7.25-.05 1.19-.19 2.39-.14 3.63Zm6-.41c.21-2.8 2.21-5 4.61-4.79a17 17 0 0 1 5 1.21c2 .81 2.3 2.22 1.3 4-1.48 2.56-3.56 3.46-7 3-2.96-.36-4.1-1.37-3.95-3.47ZM18.67 13.66a5 5 0 0 0 4 1.72A8.25 8.25 0 0 0 29 12.5c2.46-2.9 2.56-6.76 0-10.39C26-2.33 23.13-3 18.08.15a5.68 5.68 0 0 0-2.73 5.29 12.4 12.4 0 0 0 3.32 8.22Zm2.8-11.37a3.92 3.92 0 0 1 3.67.2C27 3.57 28.21 7 27.47 9.05a3.48 3.48 0 0 1-3 2.35c-1.35.16-1.95-.81-2.54-1.8a8.47 8.47 0 0 1-1.6-4.44c-.09-1.31.01-2.38 1.14-2.87ZM36 56.66c4.41.87 8.94-3.4 8.34-7.84a10.08 10.08 0 0 0-4.64-7.22 6 6 0 0 0-3.14-.94 7.5 7.5 0 0 0-7.41 7.56c.28 5.04 2.3 7.54 6.85 8.44Zm2-4.14c-2 1.43-4.07.66-4.4-1.81a10.36 10.36 0 0 1 .3-4c.36-1.38 1.33-1.82 2.73-1.85a2.42 2.42 0 0 1 2.47 1.86c.29.82.45 1.69.66 2.53A3.68 3.68 0 0 1 38 52.52ZM28.33 35.11c4.49-.67 6.48-3 6.11-7.55a47.81 47.81 0 0 0-1.09-6.51 5 5 0 0 0-4.6-4.05 10.08 10.08 0 0 0-11.17 12.66c1.16 4.39 2.87 5.68 7.45 5.69 1.1-.08 2.21-.07 3.3-.24Zm-1-5c-2.55.1-4.78-1.37-4.85-3.44a13.36 13.36 0 0 1 .58-4.31c.53-1.74 1.78-2.16 3.49-1.48 2.5 1 3.55 2.65 3.53 5.6-.02 2.52-.83 3.58-2.76 3.66ZM19.45 53.9c4.8-.25 7-2.09 6.87-5.84a32.11 32.11 0 0 0-.81-5.47c-.46-2.05-2.1-3.26-4.65-3.68-7.72-1.26-14.11 3.72-12.5 9.75 1 3.72 2.73 4.9 7.59 5.21 1.17.02 2.35.13 3.5.03Zm-.8-4.19c-2.71-.08-5-1.45-4.95-3.17a8.79 8.79 0 0 1 .84-3.54c.65-1.4 2-1.66 3.77-1 2.6 1 3.62 2.43 3.44 4.87-.15 2.13-1.05 2.91-3.1 2.84ZM-7.49 12c.23 4.93 2.77 7.39 8.09 7.61a59.46 59.46 0 0 0 7.78-.28 5.56 5.56 0 0 0 5.35-4.39C15.75 7.12 8.85.08.26 1.12c-5.3.65-7 2.31-7.61 7.25-.05 1.19-.19 2.39-.14 3.63Zm6-.41c.2-2.75 2.2-4.95 4.65-4.74A17.12 17.12 0 0 1 8.1 8c2 .81 2.3 2.22 1.3 4-1.48 2.56-3.56 3.46-7 3-2.94-.35-4.08-1.36-3.93-3.46ZM36 .43c4.43.87 9-3.43 8.36-7.84a10.08 10.08 0 0 0-4.66-7.22 6 6 0 0 0-3.14-.94A7.5 7.5 0 0 0 29.15-8c.28 5 2.3 7.53 6.85 8.43Zm2-4.14c-2 1.43-4.07.66-4.4-1.81a10.36 10.36 0 0 1 .3-4c.36-1.38 1.33-1.82 2.73-1.85a2.42 2.42 0 0 1 2.43 1.87c.29.82.45 1.69.66 2.53A3.68 3.68 0 0 1 38-3.71Z"/>
    </pattern>
    <style>
      .cls-1{fill:none}.cls-2{fill:#fff}.cls-3{fill:#feebb4}.cls-6{fill:#fbede9}.cls-7{fill:#e9edf6}.cls-11{fill:#e34a2d}.cls-13{fill:#2a4243}.cls-14{fill:#f4d56b}.cls-19{fill:#fbe630}.cls-21{fill:#bcd5d7}.cls-23{fill:#efdd64}.cls-24{fill:#eacaca}
    </style>
  </defs>
  <path d="M381.38 235.08c-6.88-7.31-13-14.88-19.68-22.28-7.09-7.88-13.83-15.93-24.47-22.31-8.55-5.13-17.46-9.8-28.71-12.13-11.9-2.46-23.68-5.23-35.52-7.86-4.84-1.08-9.68-2.17-14.54-3.22-25.94-5.58-52.19-7.78-78.65-7.77-14.79 0-29.3 1-42.39 4.72-14.92 4.2-29.85 8.58-43.61 14-20.3 8-38.14 18.06-49 32.07a420.47 420.47 0 0 0-27.64 39.49C8.41 264.33 2.38 279.57 0 295.57c37.26 1.73 74.48 4.76 112.45 6.49 98.53 4 194.43 3.68 292.74 6.06.61-16.81-3.39-33.72-9.59-50.61a65.76 65.76 0 0 0-14.22-22.43Z" style="fill:#d43c22"/>
  <path d="M381.38 235.32c-6.88-7.32-13-14.88-19.68-22.28-7.08-7.88-13.83-15.93-24.47-22.32-8.55-5.13-17.46-9.8-28.71-12.12-11.9-2.47-23.68-5.24-35.51-7.87-4.85-1.08-9.69-2.17-14.55-3.21-25.94-5.58-52.19-7.79-78.65-7.78-14.79 0-29.3 1-42.39 4.72-14.92 4.2-29.85 8.58-43.61 14-20.3 8-38.14 18.06-49 32.08A420.34 420.34 0 0 0 17.18 250C8.41 264.56 2.38 279.81 0 295.81c37.26 1.73 74.48 4.75 112.45 6.48 98.53 4 194.43 3.69 292.74 6.07.61-16.81-3.39-33.73-9.59-50.61a65.76 65.76 0 0 0-14.22-22.43Z" style="opacity:.13;fill:url(#squash)"/>
  <path class="cls-6" d="M191.92 127.69c0-.63.13-1.27.15-1.91a1.86 1.86 0 0 1 1.62-1.9 27.15 27.15 0 0 1 3.46-.58c2.93-.23 5.86-.46 8.79-.51 3.14-.06 6.29 0 9.43.18 1.86.09 2.48.84 2.71 2.73 0 .42.06.85.09 1.28a114.54 114.54 0 0 1-.38 20.62c-.22 2.53-.64 3-3.11 3.51a7.4 7.4 0 0 1-.94.17l-8 .88v-.11l-4.14.41a22.73 22.73 0 0 1-6.38-.05 2.28 2.28 0 0 1-2-1.75 17.9 17.9 0 0 1-.64-3.45c-.27-6.5-.46-13.01-.66-19.52ZM260.41 82.71c3-2.18 4-6.82 1.84-9.78a8.36 8.36 0 0 0-4.67-2.9 25.24 25.24 0 0 0-5.56-.58l-1 7.45c-.18 1.32-1.34 4.81-.62 6 1.7 2.77 7.99 1.31 10.01-.19ZM139.36 89.88c-3.18-1.87-4.71-6.37-2.82-9.54a8.3 8.3 0 0 1 4.35-3.34 25.34 25.34 0 0 1 5.47-1.14q.87 3.66 1.73 7.32c.31 1.29 1.82 4.64 1.22 5.9-1.39 2.92-7.8 2.09-9.95.8Z"/>
  <path class="cls-7" d="M245.87 172.79a7.5 7.5 0 0 0 1.59 5.23c2.9 3.69 5.7 7.48 8.6 11.18 5.68 7.25 11.21 14.63 17.16 21.65 8.16 9.65 16.66 19 25 28.51.31.35.66.67 1 1a99.55 99.55 0 0 1 10.92 12.12c1 1.33 1.47 1.42 2.68.14s2.61-2.89 3.93-4.32c3.92-4.24 7.86-8.46 11.78-12.71 1.85-2 3.66-4.07 5.42-6-1-1.45-2-2.65-2.77-3.93-2.71-4.26-5.24-8.63-8.08-12.79s-5.88-7.87-8.72-11.87a216.11 216.11 0 0 0-14.92-18c-3.47-3.92-7.25-7.57-10.94-11.29s-7.29-7.16-10.89-10.78c-2.14-2.14-4.15-4.4-6.3-6.52q-5.74-5.67-11.59-11.23a60.93 60.93 0 0 0-5-4.31c-1-.77-1.53-.56-2 .61a26 26 0 0 0-1.22 3.84c-1.32 6-2.63 11.95-3.83 17.95a72.15 72.15 0 0 0-1.82 11.52Z"/>
  <path d="M245.9 173.44a7.51 7.51 0 0 0 1.63 5.21c2.93 3.68 5.75 7.44 8.68 11.12 5.74 7.21 11.33 14.54 17.32 21.52 8.24 9.59 16.8 18.9 25.23 28.33a13.38 13.38 0 0 0 1 1 101.15 101.15 0 0 1 11 12c1 1.33 1.47 1.41 2.68.13s2.58-2.91 3.89-4.35c3.89-4.27 7.8-8.52 11.69-12.8 1.84-2 3.63-4.1 5.38-6.07-1-1.44-2-2.64-2.81-3.91-2.74-4.24-5.3-8.59-8.17-12.73s-5.95-7.81-8.82-11.79a219.73 219.73 0 0 0-15.05-17.89c-3.5-3.89-7.31-7.51-11-11.2s-7.34-7.11-11-10.7c-2.15-2.12-4.18-4.37-6.35-6.48q-5.78-5.62-11.67-11.13a61 61 0 0 0-5.07-4.28c-1-.76-1.54-.55-2 .63a27.08 27.08 0 0 0-1.19 3.84c-1.27 6-2.53 12-3.69 18a73.59 73.59 0 0 0-1.68 11.55Z" style="fill:url(#line);opacity:.43"/>
  <path class="cls-7" d="M154.45 276.37c-.25-2.94-.44-5.9-.72-8.84-.58-6-1.29-11.9-1.76-17.86-.34-4.35-.43-8.73-.52-13.09-.08-3.7 0-7.4 0-11.1.05-5.37 0-10.76.22-16.13.43-9.87.89-19.75 1.64-29.6.7-9.12 1.75-18.21 2.72-27.3.27-2.47.73-4.92 1.23-7.36.39-1.93.92-2.3 2.89-2.41a8.3 8.3 0 0 1 1.41 0c2.14.23 4.27.54 6.41.71 5 .41 9.94 1.13 14.89 1 7.31-.14 14.62-.83 21.92-1.4 4-.31 7.88-1.16 11.83-1.26a162 162 0 0 0 20.3-1.52c6.06-.92 12.17-1.1 18.26-1.49a1.34 1.34 0 0 1 1.58 1.19c.12.59.19 1.19.26 1.79.22 1.74.37 3.48.66 5.2.69 4.11 1.53 8.2 2.16 12.32 1 6.58 1.87 13.18 2.82 19.77 1.37 9.45 2.76 18.89 4.36 29.79.59 6 1.34 13.4 2 20.83.25 2.68.37 5.37.52 8 .26 4.84.39 9.68.78 14.5a110.46 110.46 0 0 1 .22 15.11c-.31 5.35 0 5.91-6.2 8.54-.37.16-.76.26-1.14.39A195.41 195.41 0 0 1 242 282a75.39 75.39 0 0 1-9.55 1.55c-5.15.45-10.32.67-15.49.86-4.56.17-9.13.33-13.7.21-5.57-.14-11.14-.72-16.71-.86-9.63-.23-19.17-1.42-28.73-2.49-2.59-.29-2.72-.51-3.14-3.05-.09-.64-.18-1.22-.23-1.85Z"/>
  <path d="M154.45 276.36c-.25-2.95-.44-5.9-.72-8.85-.58-5.95-1.29-11.89-1.76-17.86-.34-4.35-.43-8.72-.52-13.09-.08-3.69 0-7.39 0-11.09.05-5.37 0-10.76.22-16.13.43-9.87.89-19.75 1.64-29.61.7-9.11 1.75-18.2 2.72-27.29.27-2.47.73-4.92 1.23-7.36.39-1.94.92-2.3 2.89-2.41a8.3 8.3 0 0 1 1.41 0c2.14.23 4.27.54 6.41.71 5 .41 9.93 1.13 14.89 1 7.31-.15 14.62-.83 21.92-1.4 3.95-.31 7.88-1.17 11.83-1.26a162 162 0 0 0 20.3-1.52c6.06-.92 12.17-1.11 18.26-1.49a1.34 1.34 0 0 1 1.58 1.19c.12.59.19 1.19.26 1.79.22 1.73.37 3.48.66 5.2.69 4.11 1.53 8.2 2.16 12.31 1 6.58 1.87 13.19 2.82 19.78 1.37 9.45 2.76 18.89 4.36 29.79.59 6 1.33 13.4 2 20.83.25 2.68.37 5.37.52 8.05.26 4.83.39 9.68.78 14.5a110.46 110.46 0 0 1 .22 15.11c-.31 5.34 0 5.91-6.2 8.54-.37.16-.76.26-1.14.39a197.73 197.73 0 0 1-21.19 5.75 77.22 77.22 0 0 1-9.55 1.55c-5.15.44-10.32.67-15.49.86-4.56.17-9.14.33-13.7.21-5.57-.14-11.14-.72-16.71-.86-9.63-.23-19.17-1.42-28.73-2.49-2.59-.29-2.72-.51-3.14-3-.09-.65-.18-1.21-.23-1.85Z" style="fill:url(#line-3);opacity:.43"/>
  <path class="cls-7" d="M94 253.21Q84.21 242.62 74.54 232c-1.61-1.77-1.6-2-.27-4a17.72 17.72 0 0 1 1.14-1.59c3.57-4.22 7.12-8.46 10.74-12.64s7.43-8.41 11.14-12.62c4.47-5.06 8.86-10.19 13.4-15.19 10.21-11.21 21.47-21.33 32.68-31.49 2.47-2.24 5.16-4.23 7.71-6.37 1.55-1.3 3-2.7 4.55-4a7.8 7.8 0 0 1 1.51-.83l1 .48c4.84 2.49 9.76 4.87 14.52 7.51 5.33 3 10.52 6.18 15.79 9.26 3 1.72 6 3.36 8.91 5.08 1.76 1 1.88 1.63.65 3.28-.77 1-1.73 1.94-2.59 2.91-5 5.65-9.94 11.41-15.12 16.92q-9 9.51-18.29 18.64c-6.56 6.44-13.32 12.68-20 19a216.36 216.36 0 0 1-22 18.56c-5.11 3.68-10.25 7.39-16.01 10.09-5.31 2.46-6.17 2.42-10-1.79Z"/>
  <path d="M93.6 253.66c-6.51-7.07-13-14.17-19.43-21.27-1.6-1.76-1.59-2-.26-4a17.61 17.61 0 0 1 1.09-1.57c3.57-4.22 7.12-8.46 10.75-12.63s7.42-8.42 11.14-12.63c4.46-5.06 8.86-10.19 13.4-15.18 10.2-11.21 21.46-21.34 32.67-31.5 2.47-2.24 5.16-4.22 7.72-6.37 1.54-1.29 3-2.7 4.54-4a7.39 7.39 0 0 1 1.51-.84l1 .48c4.85 2.5 9.76 4.87 14.52 7.52 5.34 3 10.53 6.18 15.8 9.25 2.95 1.73 5.95 3.36 8.9 5.09 1.76 1 1.89 1.62.66 3.27-.77 1-1.73 1.94-2.6 2.91-5 5.65-9.94 11.41-15.12 16.92q-8.94 9.51-18.29 18.64c-6.56 6.44-13.31 12.68-20 19a218.65 218.65 0 0 1-22 18.56c-5.14 3.71-10.29 7.42-16.08 10.13-5.19 2.47-6.05 2.42-9.92-1.78Z" style="fill:url(#line-5);opacity:.43"/>
  <path class="cls-6" d="M80.79 232.83c2.42-.4 2.42-.49 3.51 1.67 2.35 4.69 4.31 9.59 7.21 14a2.08 2.08 0 0 1 0 2.34 87.3 87.3 0 0 1-7.4 11.25 12 12 0 0 1-2.76 2.7c-1.9 1.37-3.81.91-4.65-1.25a21.8 21.8 0 0 1-.89-4.67 19.89 19.89 0 0 1-.06-2.33c-1.34.38-2.41.67-3.47 1-3.91 1.18-6.55-.8-6.33-4.92a28 28 0 0 1 1.13-4.76c-.31-.17-.75-.44-1.21-.66a16.66 16.66 0 0 1-2.25-1.08c-2.44-1.69-2.78-4.09-.68-6.18a13.91 13.91 0 0 1 3.93-2.66 52.85 52.85 0 0 1 13.92-4.45ZM323.27 233.62c-1.87-.5-1.86-.57-2.88 1-2.19 3.51-4.1 7.22-6.7 10.47a1.65 1.65 0 0 0-.2 1.83 69.15 69.15 0 0 0 5 9.39 9.57 9.57 0 0 0 2 2.33c1.4 1.22 2.92 1 3.75-.64a17.34 17.34 0 0 0 1-3.6 15 15 0 0 0 .22-1.83c1 .4 1.85.7 2.66 1 3 1.22 5.21-.14 5.34-3.4a23.26 23.26 0 0 0-.54-3.82c.25-.12.62-.29 1-.44a13.2 13.2 0 0 0 1.85-.68c2-1.15 2.48-3 1-4.81a11.11 11.11 0 0 0-2.89-2.38 41.51 41.51 0 0 0-10.61-4.42Z"/>
  <path class="cls-2" d="M215 1.92c7.1 1.58 14 3.58 20.23 7.61 4.85 3.17 9.73 6.31 13.57 10.7 2.62 3 4.91 6.28 7.32 9.46 2.75 3.61 4.19 7.91 6 12 3.8 8.62 6.55 17.46 6.15 27.13-.37 9-1.16 17.88-3.59 26.56-3.57 12.77-9.28 24.29-19 33.58a49.63 49.63 0 0 1-19.87 11.6 70.88 70.88 0 0 1-23.91 2.77 97.62 97.62 0 0 1-10-.83c-2.89-.41-5.73-1.22-8.59-1.84a55 55 0 0 1-16.31-6.54 80.22 80.22 0 0 1-25.32-24.05 40.5 40.5 0 0 1-3.24-6 97.23 97.23 0 0 1-5.28-16c-2.92-10.79-3.71-21.67-.87-32.6.93-3.54 2.22-7 3.37-10.45a55 55 0 0 1 7.64-14.42 83.68 83.68 0 0 1 13.28-14.93 51.35 51.35 0 0 1 12.28-8.3C177.31 3.49 186 .61 195.33.16A65.93 65.93 0 0 1 215 1.92Zm8.37 137.85c4.08-.69 7.68-2.7 11.25-4.63 11.71-6.34 19.11-16.48 24.42-28.33a89.87 89.87 0 0 0 7.45-33.42c.12-2.92.39-5.86.3-8.78a37.62 37.62 0 0 0-.93-7 72.8 72.8 0 0 0-4.77-14.35c-1.29-2.82-2.31-5.76-3.77-8.48a77 77 0 0 0-5.08-8c-7-10-16.8-16.44-27.92-21a32.05 32.05 0 0 0-6.36-1.69c-4.88-.88-9.77-1.75-14.69-2.34-2.14-.25-4.36.22-6.54.36-1.54.11-3.08.32-4.63.32A47.18 47.18 0 0 0 177 5.2a52.2 52.2 0 0 0-16.91 9.08 88.12 88.12 0 0 0-13.75 14.47 72.46 72.46 0 0 0-13.24 29.1 55.79 55.79 0 0 0-1.07 10.41 60.67 60.67 0 0 0 2.25 18.61c1.42 4.84 2.82 9.69 4.44 14.47 2.06 6 5.95 11 10.09 15.74a78.08 78.08 0 0 0 18.62 15.67 58.14 58.14 0 0 0 16 6.58c2.61.64 5.24 1.2 7.87 1.72 5.56 1.11 11.18.88 19.34.66 2.58-.39 7.66-1.09 12.71-1.94Z"/>
  <path class="cls-6" d="M144.46 59.33c.76-2.92 1.83-5.76 2.78-8.63a45.43 45.43 0 0 1 6.3-11.9 69 69 0 0 1 11-12.32 42.51 42.51 0 0 1 10.14-6.86c6.95-3.19 14.12-5.57 21.82-5.94a54.38 54.38 0 0 1 16.23 1.45c5.87 1.31 11.6 3 16.71 6.29 4 2.61 8 5.2 11.2 8.82 2.17 2.48 4.06 5.19 6 7.81 2.27 3 3.46 6.54 4.94 9.91 3.14 7.11 5.41 14.41 5.08 22.39-.31 7.43-1 14.76-3 21.93-2.94 10.54-7.66 20-15.71 27.72a41 41 0 0 1-16.41 9.57 58.59 58.59 0 0 1-19.73 2.29c-2.75-.11-5.51-.3-8.22-.68-2.39-.34-4.73-1-7.1-1.53a44.83 44.83 0 0 1-13.43-5.39 66.29 66.29 0 0 1-20.91-19.85 34.71 34.71 0 0 1-2.66-5 80.81 80.81 0 0 1-4.37-13.21c-2.35-8.86-3.01-17.84-.66-26.87Z"/>
  <path class="cls-11" d="M78.17 223.78c2.23 2.44 4.36 5 6.56 7.45 4.7 5.25 9.46 10.45 14.12 15.74q3.23 3.66 6.16 7.57c1.5 2 1.32 3-.41 4.87-.26.31-.51.62-.78.91-1.69 1.77-2.16 1.82-3.72.26-1.86-1.87-3.71-3.74-5.53-5.64q-5-5.17-9.87-10.39-3.84-4.1-7.57-8.28a54.85 54.85 0 0 1-6.93-8.82c-1.37-2.41-1.34-2.8.68-5a7.54 7.54 0 0 1 .55-.58c1.29-1.16 2.5-1.43 3.84-.56a15.44 15.44 0 0 1 2.9 2.47ZM148.11 207c.43-5 1-9.89 1.46-14.84 1-10.54 1.89-21.09 2.93-31.63.47-4.85 1.08-9.69 1.8-14.48.56-3.67 1.45-4.45 4-4.28a11.78 11.78 0 0 1 1.19 0c2.45.22 2.78.71 2.6 4q-.34 5.94-.74 11.88c-.51 7.17-1 14.34-1.58 21.5q-.65 8.42-1.45 16.79a118.58 118.58 0 0 1-2.26 16.6c-.95 3.93-1.28 4.28-4.3 4.15a5.29 5.29 0 0 1-.8-.06c-1.72-.35-2.7-1.49-2.9-3.88a36.12 36.12 0 0 1 .05-5.75ZM258.25 196.86c-.86-4.39-1.58-8.8-2.41-13.19-1.77-9.36-3.61-18.71-5.33-28.07-.79-4.31-1.45-8.65-2-13-.4-3.32.24-4.25 2.73-4.83.38-.12.76-.25 1.15-.34 2.4-.5 2.85-.17 3.52 2.73q1.22 5.22 2.34 10.44c1.36 6.32 2.72 12.64 4 19 1 4.95 2 9.91 2.93 14.87a97.3 97.3 0 0 1 2.09 14.94c.1 3.65-.12 4-3.05 4.8a7.25 7.25 0 0 1-.78.17c-1.74.19-3-.51-3.78-2.51a28.87 28.87 0 0 1-1.41-5.01Z"/>
  <path d="M200 86.77c.1-2.07.38-4.15.49-6.22.11-1.92.1-3.84.17-5.77a10.8 10.8 0 0 1 .2-1.59c0-.25.21-.5.74-.51h2.71c.89 0 1 .21.92.66s-.22 1-.24 1.54c0 1.92 0 3.84-.06 5.77h.07c0 1.11-.05 2.23-.1 3.35-.07 1.45-.18 2.89-.24 4.34 0 1.27 0 2.53-.07 3.79 0 .52-.19.67-1.08.78-.63.08-1.29.11-1.93.13-1.09 0-1.57-.18-1.58-.8v-5.47Z" style="fill:#e6c6b7"/>
  <path class="cls-13" d="M241.09 67.84a2.06 2.06 0 0 0 2.3.32 2.57 2.57 0 0 0 1.05-2.7 3.38 3.38 0 0 0-.93-1.36 2.19 2.19 0 0 0-2.44-.17 2.67 2.67 0 0 0-.75 2.35 11.28 11.28 0 0 0 .77 1.56ZM161.38 71.58a2.07 2.07 0 0 0 2.3.32 2.59 2.59 0 0 0 1.06-2.7 3.5 3.5 0 0 0-.94-1.36 2.19 2.19 0 0 0-2.44-.17 2.69 2.69 0 0 0-.75 2.35 12.53 12.53 0 0 0 .77 1.56Z"/>
  <path class="cls-14" d="M185.77 12.89s-.35 28.69 72.09 44.61c0 0-11.35-52.74-72.09-44.61Z"/>
  <path class="cls-14" d="M137.48 60.3s28.21 4.22 53-47.6c.03 0-53.35 1.18-53 47.6Z"/>
  <path d="M196.28 115.91a2.8 2.8 0 0 0 .29-1.46 11.48 11.48 0 0 1 .4-2.57c1.26-3.26 5.69-3.86 7.5-1.62a6.86 6.86 0 0 1 1.53 4.21 3.3 3.3 0 0 0 .1 1c.05.16.32.23.49.34.09-.16.26-.32.24-.47a11 11 0 0 0-1.54-5.05 4.61 4.61 0 0 0-4.55-2 5.38 5.38 0 0 0-4.71 4.57c-.08.77-.15 1.55-.18 2.32a3.64 3.64 0 0 0 .14.79Z"/>
  <path d="M222.61 197c-.47-4.49-.66-9-.91-13.53a35.36 35.36 0 0 1 .07-5c.21-2.26.6-2.51 3.59-3 .43-.06.87-.14 1.31-.16 6.33-.34 12.66-.66 19-1 1.51-.08 2.54.31 2.91 1.44a9 9 0 0 1 .77 2.9c-.1 5-.33 10.08-.52 15.12 0 1.26-.08 2.52-.15 3.78s-.89 1.89-2.45 2.09-2.83.38-4.24.57v.08c-4.48.23-9 .5-13.44.68s-5.55-.44-5.94-3.97Z" style="fill:#6e9096;opacity:.58"/>
  <path d="M185.77 12.89s-.35 28.69 72.09 44.61c0 0-11.35-52.74-72.09-44.61Z" style="fill:url(#squash-3);opacity:.56"/>
  <path d="M136.18 61.73s28.21 4.22 53-47.6c.03 0-53.34 1.18-53 47.6Z" style="fill:url(#squash-5);opacity:.56"/>
  <rect x="170.49" y="174.33" width="49.2" height="49.2" rx="12" transform="rotate(177.1 195.093 198.928)" style="fill:#71c09d"/>
  <path class="cls-19" d="M184.77 184.27a41 41 0 0 0-5.17.63c-.74.13-.91.47-.5 1.1a28.38 28.38 0 0 0 1.77 2.56c1 1.23 2.08 2.4 3.14 3.59.44.49.74.51 1.16 0 .64-.77 1.23-1.57 1.82-2.38q1.37-1.84 2.68-3.72c.75-1.06.45-1.73-.87-1.81a36.2 36.2 0 0 0-4.03.03Z"/>
  <path d="M210.17 192.77a5.22 5.22 0 0 1-1.76 1.94 6.2 6.2 0 0 1-4.09.83 7.09 7.09 0 0 1-3.46-1.34 3.39 3.39 0 0 1-.89-1 7.78 7.78 0 0 1-.43-7.16 5.3 5.3 0 0 1 1.86-2.17 7.32 7.32 0 0 1 2.55-1.05 3.37 3.37 0 0 1 2.17.12c.3.13.64.17.95.27a3.69 3.69 0 0 1 .8.31 6.27 6.27 0 0 1 2.51 3 6.49 6.49 0 0 1 .56 2.78 7.18 7.18 0 0 1-.77 3.47Zm-4.54.39a3.11 3.11 0 0 0 2.69-2.67 4.93 4.93 0 0 0-.41-3.24 3.9 3.9 0 0 0-3.47-1.92h-.61a3.78 3.78 0 0 0-.94.28 4 4 0 0 0-2 4 4.11 4.11 0 0 0 1.56 3 3.08 3.08 0 0 0 1.77.68c.44-.03.93-.05 1.41-.13Z" style="fill:#232b44"/>
  <path class="cls-19" d="M184 200.72a40.81 40.81 0 0 0-5.17.63c-.74.14-.91.47-.5 1.1a26.62 26.62 0 0 0 1.77 2.57c1 1.23 2.08 2.4 3.14 3.58.44.5.74.52 1.16 0 .64-.77 1.23-1.57 1.82-2.37q1.37-1.86 2.68-3.73c.75-1.06.45-1.73-.88-1.8a33.72 33.72 0 0 0-4.02.02Z"/>
  <path class="cls-2" d="M231.24 183.52a3.62 3.62 0 0 1 2-2.3 4.45 4.45 0 0 1 2.86-.24 25.25 25.25 0 0 1 3.11 1.05 7.94 7.94 0 0 1 2.62 1.64 4.09 4.09 0 0 1 .88 1.18 8 8 0 0 1 .86 3.15 10.11 10.11 0 0 1-1.72 6.29 3 3 0 0 1-1.67 1.28 7.34 7.34 0 0 1-4.25.13A6.9 6.9 0 0 1 232 193a6.72 6.72 0 0 1-1.45-3.85 18 18 0 0 1 .69-5.63Zm1.46 8.5a5.14 5.14 0 0 0 4.21 2.57 6.26 6.26 0 0 0 3.76-1.35 3.26 3.26 0 0 0 1.18-1.9 12.54 12.54 0 0 0 .55-2.93 8 8 0 0 0-.63-3.32 3.11 3.11 0 0 0-1.1-1.38 9.1 9.1 0 0 0-5.82-1.83 3.39 3.39 0 0 0-1.68.55 2.14 2.14 0 0 0-1 1.44 16.69 16.69 0 0 0-.48 4.45 6.94 6.94 0 0 0 1.01 3.68Z"/>
  <path class="cls-21" d="M79.61 62.21a1.26 1.26 0 0 1-.2.21c-.44.28-.86.58-1.31.82-.95.5-1.92 1-2.89 1.46l-.31.15c-.29.15-.41.14-.62-.08s-.24-.47.07-.64.81-.43 1.21-.64l3.19-1.64.24-.12a.45.45 0 0 1 .62.48ZM63 67.93c-.22 0-.28-.15-.34-.32-.14-.41-.1-.48.29-.61 1.52-.48 3-1 4.58-1.39.13 0 .26-.07.39-.08a.34.34 0 0 1 .35.28c0 .17-.07.24-.19.3l-.69.3c-1.1.4-2.19.81-3.29 1.2-.38.13-.75.22-1.1.32ZM71.79 61.67a7.36 7.36 0 0 1 .21-.84c.31-.84.63-1.68 1-2.52.17-.43.33-.86.5-1.28s.21-.33.5-.18l.16.09c.26.18.27.21.14.5-.26.61-.54 1.22-.78 1.83s-.53 1.44-.8 2.16a4.25 4.25 0 0 1-.21.49.34.34 0 0 1-.41.18.37.37 0 0 1-.31-.43ZM67.3 74.06l.33-1c.33-.94.66-1.89 1-2.84.12-.35.2-.71.31-1.06.06-.17.16-.32.37-.32a.39.39 0 0 1 .41.52 6.7 6.7 0 0 1-.24.76c-.42 1.24-.84 2.48-1.27 3.72a2.12 2.12 0 0 1-.23.48.33.33 0 0 1-.44.08 1 1 0 0 1-.24-.34ZM77.09 71.88a.43.43 0 0 1-.62.36.9.9 0 0 1-.23-.2q-1.41-1.65-2.81-3.31c-.22-.26-.2-.43 0-.6a.32.32 0 0 1 .53 0l.86 1c.66.77 1.33 1.54 2 2.31a4.08 4.08 0 0 1 .27.44ZM66.53 58.69a2.54 2.54 0 0 1 .33.26 9.65 9.65 0 0 1 .72.84c.58.74 1.14 1.5 1.7 2.26a.26.26 0 0 1 .07.11c.07.14.21.28 0 .43a.4.4 0 0 1-.56 0c-.27-.27-.53-.55-.78-.85-.62-.74-1.23-1.5-1.85-2.25-.1-.13-.25-.28-.13-.43a1.77 1.77 0 0 1 .5-.37Z"/>
  <path class="cls-11" d="M72.13 66.83a1.52 1.52 0 0 1-1.68.32 1.89 1.89 0 0 1-.88-2 2.49 2.49 0 0 1 .64-1 1.64 1.64 0 0 1 1.79-.21 2 2 0 0 1 .64 1.71 8.75 8.75 0 0 1-.51 1.18ZM339.54 231.1c-2.51 2.16-5.12 4.21-7.65 6.34-5.4 4.53-10.74 9.13-16.17 13.63Q312 254.18 308 257c-2 1.44-3 1.23-4.86-.56-.3-.27-.61-.53-.89-.81-1.71-1.75-1.75-2.21-.14-3.72 1.92-1.81 3.85-3.6 5.81-5.36q5.33-4.8 10.68-9.55 4.21-3.7 8.51-7.3a53.68 53.68 0 0 1 9-6.66c2.45-1.3 2.84-1.26 5 .83a7.53 7.53 0 0 1 .56.57c1.12 1.32 1.35 2.54.44 3.85a15.8 15.8 0 0 1-2.57 2.81Z"/>
  <path d="M271 18.77a4.47 4.47 0 0 1-1.91 3.68 4.08 4.08 0 0 1-4.22.15 4.64 4.64 0 0 1-2.33-3.72 3.76 3.76 0 0 1 1.46-3.23 10.57 10.57 0 0 1 2.27-1.29 2.49 2.49 0 0 1 2.52.26 4.18 4.18 0 0 1 2.21 4.15Z" style="fill:#5992c9"/>
  <path class="cls-23" d="M352.88 46.36c-3.1.22-6.2.4-9.29.76a2.75 2.75 0 0 1-3.06-1.6c-1.21-2.16-2.51-4.26-3.79-6.38a3.59 3.59 0 0 0-2.3-2c-.12.78-.23 1.38-.3 2-.26 2.57-.53 5.13-.76 7.7a3 3 0 0 1-1.7 2.63c-2 1-3.91 2-5.85 3.07a13.43 13.43 0 0 0-2.14 1.33c-1.74 1.42-1.61 2 .45 2.87s3.92 1.81 6 2.51c2.36.81 3 2.51 3 4.75v.48c.07 2.62.14 5.25.23 7.88 0 .41 0 .88.76.83a2.86 2.86 0 0 0 .44-.55 44.91 44.91 0 0 1 4.64-7.13 2.16 2.16 0 0 1 2.25-1 34.85 34.85 0 0 1 8.51 2.32c.66.28 1.38.87 2 .18s.09-1.38-.19-2l-2.91-7.15c-.23-.58-.43-1.19-.7-1.76-.88-1.88-.83-2 .8-3.44s3.25-2.85 4.83-4.31c.45-.4 1.13-.86.81-1.56s-1.15-.47-1.73-.43ZM50 149.74c-1.78.13-3.57.23-5.34.44a1.59 1.59 0 0 1-1.77-.93c-.69-1.24-1.44-2.45-2.18-3.67a2.07 2.07 0 0 0-1.33-1.12c-.06.45-.13.79-.17 1.15-.15 1.47-.3 2.95-.44 4.43a1.69 1.69 0 0 1-1 1.51c-1.14.57-2.26 1.17-3.38 1.77a8.19 8.19 0 0 0-1.23.77c-1 .82-.92 1.18.26 1.65s2.26 1 3.43 1.45a2.46 2.46 0 0 1 1.73 2.74v.27c0 1.51.08 3 .13 4.54 0 .24 0 .51.44.48a1.69 1.69 0 0 0 .25-.32 25.8 25.8 0 0 1 2.68-4.1 1.24 1.24 0 0 1 1.3-.6 20.34 20.34 0 0 1 4.9 1.34c.38.16.79.5 1.16.1s.06-.79-.1-1.18l-1.68-4.12c-.13-.33-.25-.68-.4-1-.51-1.08-.48-1.18.46-2s1.87-1.63 2.78-2.48c.26-.23.65-.49.47-.89s-.63-.25-.97-.23Z"/>
  <circle class="cls-24" cx="174.2" cy="100.87" r="7.7"/>
  <circle class="cls-24" cx="226.19" cy="101.79" r="7.7"/>
</svg>
