<svg xmlns="http://www.w3.org/2000/svg" viewBox="0 0 32 32">
  <path
    d="M29.3 25.8L28 24.5c-2.5-2.4-6-5.9-8.6-8.4.9-.9 2.2-2.1 3.1-3.1l3.9-3.9c.2-.2.5-.5.7-.8.4-.6.9-1.2 1.5-1.8.1-.1.3-.4.4-.5.1-.1.2-.4.1-.6 0-.4-.1-.6-.4-.9-.5-.7-1.1-1.3-1.7-1.8-.2-.1-.4-.1-.6 0l-.1.1c-.9.8-1.8 1.7-2.6 2.6-.6.8-1.4 1.6-2.1 2.3-1.8 1.8-3.8 3.9-5.5 5.6-1.1-1.1-2.2-2.2-3.4-3.3-1.4-1.3-2.6-2.6-4-3.9 0-.4-.3-.6-.5-.8-.6-.5-1.3-1-1.8-1.5l-.5-.5c-.2-.1-.4-.2-.6-.2-.4.1-.7.2-1 .5-.7.5-1.2 1-1.7 1.7-.1.2-.1.5 0 .7 0 .1.1.1.1.1.8.9 1.7 1.8 2.6 2.6.8.6 1.6 1.3 2.3 2 1.9 1.9 3.8 3.7 5.6 5.6l-4.3 4.5.1.1-4.6 4.6c-.3.2-.5.5-.7.8-.4.4-.4.9-.1 1.4.5.6 1.1 1.1 1.8 1.6.2.1.5.2.7.3s.5 0 .6-.1L8 28c2.4-2.5 8.3-8.6 8.5-8.6l4.3 4.1.1-.1 4.6 4.6c.2.2.5.5.8.7.4.4.9.4 1.4.1.6-.4 1.2-1 1.6-1.7.1-.2.2-.5.3-.7-.1-.2-.1-.4-.3-.6z"
  />
</svg>
