<svg dxmlns="http://www.w3.org/2000/svg" viewBox="0 0 38.07 22.16">
  <path
    d="M38.07 9.46c0-.2 0-.3-.1-.4l-.2-.2c-.7-.5-1.3-1-1.9-1.5a15.67 15.67 0 0 0-3-2l-2.7-1.8c-.2-.1-.3-.3-.5-.1-.1 0-.1-.1-.1-.2s-.1-.2-.1-.3l-.8-.6a26.06 26.06 0 0 1-2.8-1.7l-.8-.6c-.2-.2-.3.1-.4.4a10.55 10.55 0 0 0-.6 2.4 1.23 1.23 0 0 0 .2 1 2.18 2.18 0 0 0 .4.5 12.65 12.65 0 0 0 3.1 2 14.31 14.31 0 0 1 1.5 1.1c.5.4 1.1.8 1.7 1.2a.75.75 0 0 1-.5-.1c-.3 0-.7-.1-1-.1-1.9 0-3.7-.1-5.6-.1h-5.4a8.58 8.58 0 0 1-2.2-.2 2.85 2.85 0 0 0-1.3 0c-3.5 0-8.6 0-12.1-.1h-1.8c-.2 0-.4.2-.6.4a1.08 1.08 0 0 0-.3.7 6 6 0 0 0-.1 2.3 1.3 1.3 0 0 0 1.1.9c.3 0 .7.1 1 .1h10.9a18 18 0 0 1 2.2.2 4.82 4.82 0 0 0 1.2 0c3.5 0 7 .1 10.6.1 1 0 2 .1 3 .2a5.28 5.28 0 0 0 1.2.1 8.79 8.79 0 0 1-1 .6 7.63 7.63 0 0 0-1.1.8l-2.3 1.64a.78.78 0 0 0-.4.4.52.52 0 0 1-.4.2c-.1 0-.1.1-.2.1-.6.5-1.2.9-1.8 1.4l-.1.1a.9.9 0 0 0-.1.5v.4a20.24 20.24 0 0 0 .4 2.6c0 .2.1.3.3.4a.52.52 0 0 0 .4-.2 2.19 2.19 0 0 0 .5-.3 26.1 26.1 0 0 1 2.7-1.9c.7-.5 1.5-1 2.2-1.5s1.6-1 2.4-1.6l2.3-1.6c.5-.4 1.1-.8 1.7-1.2.3-.2.5-.4.8-.6a3.58 3.58 0 0 0 .4-1.1 17 17 0 0 0 .1-2.3Z"
  />
</svg>
