<svg xmlns="http://www.w3.org/2000/svg" viewBox="0 0 44.7 21.2"><path d="M4.8 1.6v6s2.1 0 3.2-.1c.9-.2 1.1-.2 1.2-1.1l.3-1.3h1L10.4 8l.1 2.9h-1l-.2-1.2c-.3-.8-.6-.9-1.3-1-.8-.1-3.2-.1-3.2-.1v5c0 1 .5 1.4 1.6 1.4h3.4c1.1 0 2.1-.1 2.8-1.6l.9-2h.8c-.1.4-.5 4-.6 4.8 0 0-3.1-.1-4.4-.1H3.5l-3.5.1v-.9l1.1-.2c.9-.2 1.1-.4 1.1-1.1 0 0 .1-2.2.1-5.9 0-3.6-.1-5.8-.1-5.8 0-.7-.2-.9-1.1-1.1L0 1.1V.2l3.4.1h6.5c1.3 0 3.5-.2 3.5-.2s-.1 1.4-.2 4.6h-.9L12 3.5c-.3-1.5-.8-2.2-1.7-2.2H5.2c-.4 0-.4.1-.4.3zm13.1.7h1v3.4l3.3-.2L22 7l-3.2-.2v6c0 1.7.6 2.4 1.5 2.4s1.5-.5 1.8-.9l.5.6c-.5 1.1-1.9 1.7-3.2 1.7-1.6 0-2.9-1-2.9-2.8V6.9h-1.9v-.8c1.6-.2 2.9-1.2 3.3-3.8zm7 10.4.6 1.5c.2.6.8 1.3 2.1 1.3 1.4 0 2-.7 2-1.6 0-2.8-5.4-2-5.4-5.7 0-2.1 1.7-3.1 3.9-3.1 1 0 2.4.2 3.2.5-.2.9-.3 1.9-.3 2.8l-.8.1-.6-1.6c-.2-.4-.8-.7-1.6-.7-1 0-2 .4-2 1.5 0 2.5 5.6 2 5.6 5.7 0 2.1-1.9 3.2-4.1 3.2-1.7 0-3.4-.7-3.4-.7.2-1 .1-2 0-3.1 0-.1.8-.1.8-.1zm6.4 7.8c.2-.9.4-2 .6-3.1l.9-.1.3 1.7c.1.4.3.7 1 .7 1.1 0 2.4-.6 3.7-2.9-.6-1.4-2.3-5.8-3.8-9.3-.4-.9-.5-1-1-1.1l-.4-.2v-.7l2.4.1 3-.2v.8l-.7.2c-.6.1-.8.4-.8.7 0 .1 0 .2.1.3.2.5 1.5 4.1 2.4 6.6.8-1.7 2.4-5.5 2.6-6.2.1-.3.2-.4.2-.6 0-.4-.2-.7-.8-.8l-.6-.2v-.8l2.3.1 2.1-.1v.8l-.4.3c-.9.4-1 .5-1.4 1.1L39.5 16c-2.1 4.8-4.3 5.2-5.9 5.2-1 0-1.7-.3-2.3-.7z"/></svg>
