<svg xmlns="http://www.w3.org/2000/svg" viewBox="0 0 32 32">
  <path
    d="M.5 7.6c0 .2.2.4.4.4 0 0 .1.1.2.1 1.1.1 2.2.1 3.3-.1 1-.1 1.9-.1 2.8-.2 3.3 0 6.5-.1 9.7-.1.4 0 .7 0 1.1-.1.7-.1 1.3-.2 2-.2h10c.3 0 .7 0 .9-.1.5 0 .8-.3 1-.8.2-.7.2-1.4 0-2.2-.1-.3-.1-.5-.3-.7-.1-.2-.3-.3-.5-.3h-1.7c-3.3.1-7.8.1-11.1.1-.4 0-.8 0-1.2.1-.7.1-1.3.2-2 .1-1.6 0-3.3 0-5 .1-1.7.1-3.4.2-5.1.2-.3 0-.7 0-.9.1-.7.1-1.4.2-2.1.2-.2-.1-.4 0-.6 0-.3 0-.5.1-.5.3-.2.3-.3.5-.4.8-.1.8-.2 1.5 0 2.3zm31.1 6.8c-.1-.2-.2-.3-.4-.5-.1 0-.1-.1-.1-.1-1.1-.1-2.3-.2-3.4-.1-.9.1-1.8.1-2.8.1-3.3-.1-6.5-.2-9.7-.3h-1.1c-.7.1-1.3.1-2 .1H8v.1l-5.9-.2h-.9c-.5 0-.8.3-1 .8-.2.7-.2 1.4-.1 2.1.1.3.1.5.3.7.1.2.3.3.5.3l1.7.1c3.3.1 7.8.2 11.1.3.4.1.8.1 1.2 0 .7-.1 1.3-.1 2-.1 1.6.1 3.3.1 5 .1 1.7.1 3.4.1 5.1.1h.9c.7-.1 1.4-.1 2.1-.1h.6c.2 0 .4-.1.5-.3.1-.3.3-.5.4-.8.2-.8.2-1.5.1-2.3zm0 9.9c-.1-.2-.3-.3-.4-.4-.1 0-.1-.1-.1-.1-1.1-.1-2.3-.1-3.4.1-.9.1-1.8.2-2.7.2-3.3 0-6.5.1-9.7.1-.4 0-.7 0-1.1.1-.7.1-1.3.2-2 .2H8.1v.1H2.2c-.3 0-.7 0-.9.1-.5 0-.8.3-1 .8-.1.7-.1 1.4.1 2.2.1.3.1.5.3.7.1.2.3.3.5.3h1.7c3.3-.1 7.8-.1 11.1-.1.4 0 .8 0 1.2-.1.7-.1 1.3-.2 2-.1 1.6 0 3.3 0 5-.1 1.7 0 3.4-.1 5.1-.1.3 0 .7 0 .9-.1.7-.1 1.4-.2 2.1-.2.2 0 .4 0 .6-.1.2 0 .4-.1.5-.3.1-.3.3-.5.3-.8 0-.8 0-1.6-.1-2.4z"
  />
</svg>
