<svg viewBox="0 0 128 128" 
  xmlns="http://www.w3.org/2000/svg">
  <title>Twitter</title>
  <path d="M64,0C28.7,0,0,28.7,0,64c0,35.3,28.7,64,64,64s64-28.7,64-64C128,28.7,99.3,0,64,0z M96.8,48.7
	c0,0.7,0,1.4,0,2.1c0,21.7-16.5,46.7-46.7,46.7c-9.3,0-17.9-2.7-25.2-7.4c1.3,0.2,2.6,0.2,3.9,0.2c7.7,0,14.8-2.6,20.4-7
	c-7.2-0.1-13.2-4.9-15.3-11.4c1,0.2,2,0.3,3.1,0.3c1.5,0,2.9-0.2,4.3-0.6c-7.5-1.5-13.2-8.1-13.2-16.1c0-0.1,0-0.1,0-0.2
	c2.2,1.2,4.7,2,7.4,2.1c-4.4-2.9-7.3-8-7.3-13.7c0-3,0.8-5.8,2.2-8.3c8.1,9.9,20.2,16.5,33.8,17.1c-0.3-1.2-0.4-2.5-0.4-3.7
	c0-9.1,7.3-16.4,16.4-16.4c4.7,0,9,2,12,5.2c3.7-0.7,7.3-2.1,10.4-4c-1.2,3.8-3.8,7-7.2,9.1c3.3-0.4,6.5-1.3,9.4-2.6
	C102.8,43.5,100,46.4,96.8,48.7z" />
</svg>