<svg xmlns="http://www.w3.org/2000/svg" xml:space="preserve" viewBox="0 0 449.1 198.9">
  <style>
    .st5{fill:#d4a19d}.st6{fill:#d5a19a}.st54{fill:#442615}
  </style>
  <path fill="#fce9e6" d="M284 1.3c1.5-1.7 3.4-1 5.2-1 18.8 0 37.7-.8 56.5.3 10.6.6 21.2.3 31.8 1.3 6.6.6 13.4 1 20.1 1.4 7.4.5 14.8 1.6 22.3.6 1-.1 2.4.2 3.2 1.2-2.3 1.8-7 1.6-5.6 6.5.1 1.4 0 2.8 0 4.1.8 12.5 2.3 25 2 37.6 0 1 .3 2 .6 2.9.7 5.7.9 11.4-.1 17.1-4.5 4.5-10.4 5.4-16.2 6.1-3.1.4-3.3-2-3-4.4 2.2-7.3 5.5-14.2 5.1-22.2-.7-12.8-4.9-23.5-15.7-31.4-6.1-4.5-12-9.1-20-9.4-15.5-.6-33.3 2.8-42 17.6-1.5 2.5-2.6 5-3.1 7.9-2.6 14.4-1.5 28.1 6.5 40.8 2.7 4.2 6.5 7.1 10.7 9.5 2 1.1 4.3 2 5.1 4.5-.2 3.4-2.6 4-5.3 4.1-13.6-.1-26.6 2.2-37.9 10.6-21.2 5.2-42.3 10.5-63.5 15.8-20 5-39.9 10.4-59.8 16-22.1 6.2-44.2 12.5-66.2 19.1-21.2 6.3-42.1 13.5-63 20.9-6.3 2.2-12.2 5.4-18.5 7.6-2 .7-4 1.9-6.2.9-.7-.6-1-1.4-1.1-2.2-.3-1.4-.2-2.9-.3-4.3-1.3-5.1-1-10.4-1-15.6-.2-1.2 0-2.4 0-3.6-.1-5.7-.2-11.5 0-17.2 0-1.5-.1-3 0-4.5-.1-4.8-.1-9.7 0-14.5-.1-1.5-.1-3 0-4.5 0-5.4-.4-10.9.3-16.3 1.3-2.8-.1-5.5-.2-8.3-.2-4.1-.5-8.3.7-12.3.1-1.4.2-2.8.2-4.3.1-3.4-.5-6.9.7-10.3 2.4-3 6-3.4 9.4-4.1 14.3-3 28.4-6.8 42.6-10.5 30.9-7.9 61.8-16.2 92.6-24.5 23.8-6.3 47.6-12.5 71.5-18.5 11.9-3 23.9-5.8 35.9-8.6 2.2-.2 4.2-.7 5.7-1.9z"/>
  <path fill="#edcdc4" d="M401.8 75c-.7 2.9-.1 4 3.3 3.3 4.6-1 9-2.8 13.5-4.2 2.8 2.2 2.6 5.5 2.7 8.5.2 3.1.2 6.2 0 9.3 0 1.5.1 3 0 4.6.1 5.1.1 10.3 0 15.4 0 1.2.2 2.4 0 3.6.1 5.8.2 11.5 0 17.3 0 1.5.1 3 0 4.5.1 4.8.1 9.7 0 14.5.1 1.5.1 3 0 4.5.1 7.6.5 15.3-2.4 22.6-11 2.1-22.2 3.2-33.4 4.2-15.5 1.4-31 2-46.6 3.1-16.2 1.1-32.4 2-48.6 3-12.7.8-25.5 1-38.2 1.8-21.8 1.4-43.7 2.4-65.6 3.2-8.4.3-16.9.4-25.4.8-20.7 1-41.5 1.6-62.2 2.3-10.8.4-21.6.5-32.4.6-5.3 0-10.6 1-15.9 1-7.9-.1-15.9-.6-23.9-1-2-3.7-2.3-7.4.2-11 9.5-2.5 18-7.6 27.3-10.7 15.9-5.3 31.6-10.9 47.5-16 12.7-4.1 25.6-8 38.5-11.4 16.9-4.5 33.6-10 50.6-14.1 13.6-3.2 26.9-8.1 40.5-11.3 15.5-3.6 30.8-7.7 46.2-11.5 7-1.8 14.4-2.6 21.1-5.4 1.6-.7 3.3-.4 4.9-.5.6 1.5-.4 2.5-1.2 3.6-9.7 12.6-9.1 26.8-5.4 41 7.6 29.4 45.2 36.3 66.7 18.3 9.8-8.2 12.5-19.8 12.9-32.3.6-20.1-17.9-35.4-32.2-39.2-1.2-.3-2.7-.4-3-2.1 2.3 0 4.4-.4 5.2-3 1.9-1.6 3.8-.3 5.7.1 14 3 27.1 1.7 38.8-7.2 2.5-1.9 4.8-4 6.5-6.8 1.3-1.6 2-3.4 4.3-3.4zM284 1.3c-2 3.9-6.1 3.8-9.5 4.6-16.1 3.9-32.2 7.4-48.2 11.7-21.9 5.9-43.8 11.5-65.7 17.3-20 5.3-39.9 10.7-59.9 15.9C81.2 55.9 61.6 60.9 42 65.6c-5 1.2-10 2.1-14.9 3.6-1.7-1.7-1.4-3.8-1.4-5.9-.1-1.5 0-2.9 0-4.4 0-4.6-.3-9.1.3-13.7.3-1.5.7-3 .7-4.5-1-4.8-.7-9.6.4-14.4 12.6-1.6 25.2-3.3 37.8-4.9 9.3-1.2 18.7-2.1 28-3.2 8.7-1.1 17.3-2.4 26-3.4 10.5-1.3 21-2.4 31.5-3.6 11.3-1.2 22.7-2.5 34-3.6 5.1-.5 10.2-.9 15.3-1.4 11.2-1 22.4-2 33.6-2.9 5.9-.5 11.9-.6 17.9-.9C262.1 1.9 273 .6 284 1.3z"/>
  <path fill="#d6a19a" d="M420.1 92.5c-.6-6.1.5-12.4-1.5-18.4 0-5.9.1-11.8.1-17.7.2-.2.4-.5.6-.7 9.8-1.4 19.7-2.2 29.4.5v15.1c-1.9 1.7-4.3 1.4-6.6 1.4-6 .1-12.1-.1-18.1.5 6 .6 12.1.4 18.1.5 2.3 0 4.7-.3 6.6 1.5.5 5.8-.4 11.5-1 17.2-1 1-2.3 1.3-3.6 1.3-8-.5-16.1 1.4-24-1.2z"/>
  <path fill="#d0a39b" d="M418.8 56.4c-.2-.4-.7-.9-.7-1.3.2-13.4-1.6-26.7-2-40 1-.8 2-.8 3.1-.4.6.3-.1-.1.4.2 8.2 5.1 8.5 6.1 4.4 15.6-.7.7-1.9.6-3.2 2.3 9.5-.9 18.5 1.8 27.3-1.8.3.4.9.9.8 1.2-1.8 6.6.7 13.3 0 19.9-1.8 1.6-4 1.4-6.1 1.4-5.6.1-11.2 0-16.8 0-2.5 0-5 0-6.8 2.3-.2.3-.3.4-.4.6z"/>
  <path fill="#d5a299" d="M27.1 63.2v6c-.1 3.7-.2 7.5-.3 11.2-5.2 2.6-10.7 1-16 1.2-3.5.1-7.3 1-10.5-1.3 0-5.7-.1-11.5-.1-17.2 1.3-1.2 2.9-1.4 4.6-1.5 5.9-.1 11.8-.1 17.8 0 1.7.1 3.2.5 4.5 1.6z"/>
  <path d="M420.1 112.4c0-5.4-.1-10.9-.1-16.3 1.2-1.1 2.6-1.4 4.1-1.4 6.6-.2 13.1-.2 19.7 0 1.5 0 2.9.4 4.1 1.5 0 6.8-.4 13.6-1.7 20.3-.5-.2-1-.5-1.3-1-1.5-2.1-3.7-1.8-5.8-1.8-4.6-.1-9.2 0-13.8 0-1.8-.2-3.7 0-5.2-1.3z" class="st5"/>
  <path d="M420.1 133.4v-18.5c8.5 0 17.1-1.5 25.6 1 .2.2.3.4.5.5-.6 5.6-.3 11.4-2.4 16.8-7.9 2.5-15.8 2.2-23.7.2z" class="st5"/>
  <path d="M26.3 104.4c-.1 5.6-.2 11.2-.2 16.8-4.9 3-10.3 1.2-15.4 1.5-3.2.2-6.6.8-9.5-1.5-.1-6-.1-12-.9-18 8.2-.7 16.5-.7 24.7.1.5.2 1 .5 1.3 1.1z" class="st6"/>
  <path fill="#d2a199" d="M27.1 84.2c-1.5 5-1.3 10.1-.4 15.1.3 1.8 1 3.5-.4 5.1l-.4-.4c-1.7-2.2-4.2-2.3-6.7-2.3H5.9c-2 0-4 .1-5.6-1.4 0-5.4-.1-10.7-.1-16.1 1.2-1.1 2.6-1.4 4.1-1.5 6.2-.2 12.5-.2 18.8 0 1.4 0 2.8.4 4 1.5z"/>
  <path d="M27.1 44.3c0 5 0 10-.1 14.9-1.2 1-2.6 1.4-4.1 1.5-6.2.2-12.5.2-18.7 0-1.5 0-2.9-.3-4.1-1.4 0-6.5-.6-12.9.6-19.4.6.2 1 .5 1.3 1 1.5 2.1 3.7 1.8 5.8 1.9 4.6.1 9.2 0 13.7.1 2.1-.1 4.1-.3 5.6 1.4z" class="st6"/>
  <path fill="#d2a29c" d="M26.2 144.2V162c-2.4 2.1-5.3 1.4-8.1 1.5-4.4.2-9-.6-13.1 1.6-.9-.7-1-1.6-.9-2.6.5-6.1-.7-12-1-18.1.4-.6.8-1.2 1.5-1.2 7.2-.6 14.5-2.2 21.6 1z"/>
  <path fill="#d1a39a" d="M419 179c-.3-7.7 1.6-15.2 1-22.9 6.6-2.3 13.2-2.3 19.8-.1-.2 6-2 11.6-3.6 17.3-.7 2.6-2.9 4.5-5.4 4.6-4 .2-7.8 1.6-11.8 1.1z"/>
  <path fill="#d5a29b" d="M26.1 125.2c0 5-.1 10.1-.1 15.1-1.9 1.6-4.3 1.4-6.6 1.3-5.7-.2-11.4.6-17.1-.3-.4-5.4.1-10.9-1.1-16.2 5.2-2.8 10.9-1 16.4-1.4 3-.2 6-.7 8.5 1.5z"/>
  <path fill="#d7a09b" d="M423.9 30.3c.3-2.7-.7-5.6 1.3-8.1 1.2-1.5-.5-2.1-1.4-3.1-1.5-1.5-4.2-1.2-4.9-3.7.1-.1.2-.3.3-.4 9.3-2.2 18.5-2.6 27.7.3-.2 5 1.7 10 .8 15-7.9 2.3-15.8 2.5-23.8 0z"/>
  <path fill="#d4a29a" d="M420.1 152.3c0-5.2.1-10.3.1-15.5 2.5-1.7 5.4-1.1 8.2-1.1 5.2-.1 10.5.5 15.6-1.5-.3 7.2-1.9 14.1-3.9 21-3.3-1.9-6.9-1.5-10.5-1.6-3.2-.2-6.6.8-9.5-1.3z"/>
  <path fill="#cfa59d" d="M27.1 26.3c2 4.5-1.3 9.5 1 14-1.2 1.1-2.6 1.4-4.1 1.4-6.2.1-12.5.2-18.7 0-1.5 0-2.9-.4-4.1-1.4l-.4-.4c.1-.5.2-1 .2-1.5.4-8.9.7-9.3 9.5-10.3 5.5-.5 11-1.1 16.6-1.8z"/>
  <path fill="#d4a39c" d="M26 165c.3 5.4-.2 10.8 1 16.2-6.6 2.3-13.2 2.4-19.8-.1-.7-5-1.3-10.1-2-15.1 6.9-2.6 13.9-1.3 20.8-1z"/>
  <path fill="#d0a39e" d="m27.2 187-.2 11c-3 0-5.9.1-8.9.1-5.5 0-7.3-1.3-8.7-6.6-.6-2-.9-4.2-1.4-6.2 6.3-2.8 12.6-2.4 18.9-.3.2.6.2 1.3.3 2z"/>
  <path fill="#d5a69e" d="M416 11.4c-.2-3.9 2.2-6 6.9-6.3 6.6 1.4 13.3.5 19.9 2.1 2.3.5 4 1.4 4 4.1-.8.7-1.6 1.2-2.6 1.3-8.7.5-17.4.6-26.1-.1-.7-.1-1.4-.6-2.1-1.1z"/>
  <path fill="#712319" d="M416 11.4c10.3 0 20.6-.1 30.9-.1.3 1.4 1 2.7.1 4.1-9.4 0-18.7.1-28 .1-1-.1-1.9-.2-2.9-.3-.1-1.3-.1-2.6-.1-3.8z"/>
  <path fill="#772a21" d="M419.2 56c-.8-2.5-.5-4 2.8-4 9 .2 17.9.2 26.9.2v3.9c-10 0-19.8 0-29.7-.1z"/>
  <path fill="#7b2d22" d="M423.9 30.3c7.9 0 15.9.1 23.8.1.1.3.2.5.3.8.3 2.5-.7 3.5-3.4 3.4-7.6-.1-15.3 0-22.9-.1-1.6 0-4.1 1-4.1-2.1.1-3 2.7-1.5 4.2-1.9.8-.2 1.6-.1 2.1-.2z"/>
  <path fill="#6f211e" d="M448.8 75.2h-25.5c-1.5 0-3.6.9-3.7-1.9 0-2.8 2.2-2 3.6-2 8.5-.1 17 0 25.5 0 .1 1.3.1 2.6.1 3.9z"/>
  <path fill="#792723" d="M447.9 96.1H420c0-1.2.1-2.4.2-3.6 9.2 0 18.4-.1 27.6-.1 0 1.2 0 2.5.1 3.7z"/>
  <path fill="#71211c" d="M.2 59.3c8.9 0 17.9 0 26.9-.1.4 1.3.5 2.7 0 4-9 0-18-.1-26.9-.1v-3.8z"/>
  <path fill="#802725" d="M27.1 84.2c-9 .4-17.9.4-26.9 0 .1-1.3.1-2.5.2-3.8 8.8 0 17.7 0 26.5.1 0 1.2.1 2.4.2 3.7z"/>
  <path fill="#7a2b23" d="M.3 100.3c7.6-.1 15.3 0 22.9-.3 3.3-.1 3.6 1.4 2.8 4H5.6c-1.8 0-3.7.4-5.3-.8-.1-1 0-2 0-2.9z"/>
  <path fill="#6f1f1a" d="M26.1 125.2c-8.3 0-16.6-.1-24.9-.1 0-1.3 0-2.6-.1-3.9H26c.6 1.3.6 2.6.1 4z"/>
  <path fill="#7a2c28" d="M2.3 141.3c4.6-1.9 9.5-.5 14.2-.9 3.1-.2 6.3-.1 9.4-.1.5 1.3.7 2.6.2 4-7.7.1-15.4.1-23.2.2-1.4-.8-.5-2.1-.6-3.2z"/>
  <path fill="#74241b" d="M443.9 134.2c-.7 2-1.9 3.1-4.3 3-6.5-.3-12.9-.2-19.4-.3v-3.4c7.9-.1 15.8-.1 23.7-.2.1.2.2.5 0 .9z"/>
  <path fill="#701e13" d="M26 165c-3.3 2.1-7 .8-10.5 1-3.4.2-6.9 0-10.3 0l-.3-.9c-.2-2.2.5-3.2 3-3.1 6.1.2 12.1 0 18.2 0 0 1.1 0 2.1-.1 3z"/>
  <path fill="#74241f" d="M420.1 152.3c5.6 0 11.2.1 16.8-.2 2.5-.1 3.1.9 3.1 3-.1.3-.1.5-.2.8-6.6 0-13.2 0-19.8.1l.1-3.7z"/>
  <path fill="#6f231b" d="m27 184.9-18.9.3c-1.8-1.1-.6-2.7-.8-4.1 6.6 0 13.2 0 19.8.1-.1 1.2-.1 2.5-.1 3.7z"/>
  <path fill="#9e693a" d="M341.8 95.3c9.7 1.1 17.1 6.5 23.9 12.9 14 13.1 15.4 29 9.7 46.2-8.1 24.5-38.6 30.4-56.9 22.1-17-7.7-24-21.3-24.5-39.2-.2-5.5.1-10.9 1.3-16.3 1.2-5.9 5.2-10.3 8.7-14.9 11-9.1 24.1-10.9 37.8-10.8z"/>
  <path fill="#9e693b" d="M401.8 75c-6.6 11.4-16.6 17.5-29.5 19.6-8.8 1.4-17.1 0-25.4-2.3-.9-.7-1.8-1.4-2.8-2-17.4-9-22-24.3-21.6-42.5.2-10.9 3.1-20.2 11.6-27.4 4.8-4.1 10.5-6.3 16.4-8 20.1-5.7 39.7 1.5 50.5 19.2 8 13 7.5 26.8 1.8 40.6-.2 1-.6 1.9-1 2.8z"/>
  <path fill="#38261b" d="M80 112.2c6.6-1 11.2 6.6 8.3 13.5-1.4 3.3-1.1 4.8 2.1 6.8 5.3 3.2 6.7 9.3 4.7 15.3-1.4 4.3-8.1 8.9-13.1 9.2-2 .1-2.6-1.1-3.1-2.5-3.5-12.2-6.9-24.4-10.4-36.6-.5-1.8.4-2.8 1.8-3.5 3.1-1.5 6.3-2.4 9.7-2.2z"/>
  <path fill="#3d251a" d="M151 112.1c-.8-15.3 9.1-19.6 21.3-20 1.2 0 2.8-.5 2.8 1.7-.1 1.6-.8 2.2-2.4 2.5-2.6.5-5.2 1.2-7.6 2.1-6.8 2.4-10 8.2-9 15.8 1.3 9.2 5.4 13.5 13.4 13.8 3.2.1 6.4 0 9.3-1.2 1.6-.7 2.7-1 3.6.8 1.2 2.3-.6 3-2 3.7-17.7 8.6-29-.9-29.4-17.7.1-.5.2-1 0-1.5z"/>
  <path fill="#3c271c" d="M273.2 108.1c-.4-.1-1.5-.3-2.7-.5-1.6-.3-2.9-.9-2.4-2.9.4-1.6 1.3-2.7 3.2-2.5.7.1 1.4 0 2 .2 2.7 1.4 5.4 1 7.2-1.2 2.1-2.4 1.3-5.4 0-8-2.7-5.5-7.6-8.6-12.5-11.7-2.9-1.8-5.4-3.8-6.5-7.2-1.4-4-.1-8.4 3.2-10.6 4-2.7 10-2.8 13.1-.2 1.2 1 1.6 2.2.9 3.5-.7 1.2-2 1.1-3.1.6-.6-.2-1.2-.5-1.8-.8-3-1.2-5.3.1-6.9 2.4-1.8 2.4-.9 4.8 1 6.8 2.8 3 6.8 4.1 10.1 6.2 3.3 2.1 6 4.7 7.6 8.2 4.3 9-1.5 17.8-12.4 17.7z"/>
  <path fill="#39251b" d="M212.1 113.2c.3 5.4-.5 9.9-5.9 12.2-6.4 2.8-11.6 1-14.1-5.5-3.6-9.2-5-19.1-7.8-28.6-.4-1.6.1-2.5 1.8-2.7 2.2-.3 2.5 1.2 2.9 2.6 1.5 6.6 2.9 13.2 4.5 19.8.6 2.4 1.4 4.8 2.4 7.1 1.3 3 3.2 4.9 6.9 4.2 3.8-.8 4.6-3.4 4.7-6.6.1-7.7-2.3-15-4.1-22.4-.3-1.4-.9-2.8-1.2-4.3-.3-1.2-.9-2.4 1.1-3.1s2.9 0 3.3 1.7c1.6 5.7 3.1 11.4 4.6 17.1.6 2.8 1.2 5.8.9 8.5z"/>
  <path fill="#3b271d" d="M129.8 98.1c1 .1 2 .1 3 .4 2 .7 4.8 1.3 4 4.1-.8 3-3.1 1.3-4.9.6-3-1.2-5.2.1-6.9 2.4-1.9 2.6-.3 4.6 1.4 6.6 2.2 2.4 5.3 3.4 8 4.9 7.7 4.4 10.9 10.1 9.7 17.3-1.1 6.4-9.8 11-15.6 8.3-1.2-.6-2.6-1.4-2-3 .5-1.6 1.5-3 3.7-2.3 3.1 1 6.8 2 8.5-1.4 2-3.9.1-7.8-2.8-10.9-2.5-2.7-5.3-5-8.5-6.9-1.9-1.1-3.8-2.2-5.1-3.9-2.2-2.9-4.4-5.9-2.5-9.9 2.1-4.5 5.5-6.2 10-6.3z"/>
  <path fill="#8f6c4c" d="M189.8 58.2c0 10-7 15.5-15.3 12.1-2.6-1.1-4.2-3.1-5.5-5.5-2.9-5.1-3.6-10.6-3-16.3.5-4.4 3-7.7 7.3-9.2 4.5-1.6 8.1.1 11.2 3.3 3.3 3.5 5.3 9.3 5.3 15.6z"/>
  <path fill="#3a251a" d="M249.9 70.1c2-.2 2.7 1 3.1 2.6.5 1.8-.6 2.5-2.2 3.1-6.2 2.3-6.2 2.4-4.6 8.8 2 8.3 3.9 16.7 6.1 25 .5 2.1 1.6 4-1.2 4.8-3.1.9-2.9-2.1-3.4-3.7-2.6-9.4-5.3-18.8-7.4-28.3-.7-3.1-1.8-3.3-4.3-2.6-1.8.5-3.6.7-5.4.8-1.4.1-2.7-.4-2.5-2.3.1-1.3-.3-2.7 1.6-3.1 6.8-1.8 13.5-3.5 20.2-5.1z"/>
  <path fill="#8e6c4e" d="M130.1 73.7c0 7.5-1.8 10.8-7.1 12.8-4.5 1.7-9.1.5-11.9-3.4-4.3-6-6.2-12.8-4.3-20.1 1.1-4.2 3.8-7.3 8.4-8 4.6-.7 8 1.1 10.7 4.8 3 4.1 4.4 8.8 4.2 13.9z"/>
  <path fill="#916a4f" d="M102.2 90.7s-.6.6-1.6 1.1c-1.4.6-2.2 0-2.7-1.3-.9-2.5-2.2-4.9-2.7-7.4-.6-3.1-2.2-3.1-4.6-2.4-7.5 2.2-7.5 2.2-5 9.9.4 1.2.8 2.5 1.2 3.8.6 1.7-.8 1.9-1.7 2.4-1.2.6-1.7.1-2.2-1-3.5-8.4-6.1-17.1-8.6-25.8-.4-1.3.1-2.3 1.5-2.6 1.3-.3 2.3 0 2.7 1.4.8 2.5 1.9 5 2.4 7.5s1.5 3.5 4.1 2.3c1-.5 2.2-.6 3.3-.9 3.4-.7 5-2.1 3.1-5.8-1-2-1.5-4.4-2.1-6.6-.4-1.4.2-2.1 1.5-2.6s2.4-.3 2.8 1c2.7 8.6 5.5 17.2 8.6 27z"/>
  <path fill="#8d6c50" d="M281 42.6c-2.6.2-3.8-.4-4.3-3.4-1.2-7.8-3-15.6-4.6-23.3-.6-3 .1-4.6 3.6-4.8 3-.2 5.9-1.2 8.8-1.7 1.3-.2 3.1-1.1 3.5 1.4.3 2-.7 2.6-2.5 2.7-1.1 0-2.2.5-3.4.8-5.1 1.1-6.6 4.9-4 9.5.7 1.3 1.4.9 2.4.7 2.4-.4 4.9-.8 7.3-1.2 1.2-.2 2.3-.5 2.8 1.1s-.2 2.6-1.7 3c-2.2.5-4.5.9-6.8 1.4-5.9 1.1-1.5 5-1.9 7.4-.5 3.1 2.2 2.1 3.8 1.9 2.3-.3 4.6-.8 6.8-1.3 1.4-.3 2.2.1 2.6 1.5.5 1.6-.4 2-1.7 2.3-3.5.5-7.1 1.3-10.7 2z"/>
  <path fill="#8f6a4c" d="M245.6 51.7c.2 1.5-.8 1.6-1.9 1.5-1.6-.2-2-1.6-2.7-2.7-2.8-4.4-7.6-5.6-11.8-2.9-2.2 1.5-.8 4.3-1.8 6.4-.7 1.3-.1 3.7-2.7 3.1-2.5-.6-.9-2.4-.7-3.6 1.3-8.1 2.7-16.3 4-24.4.2-1.1.3-2.5 1.6-2.9 1.4-.4 1.9.9 2.5 1.8 4.4 7 8.5 14.1 12.2 21.5.5.8.9 1.5 1.3 2.2z"/>
  <path fill="#8c6d4f" d="M138 59.6c.6-4.1 1.6-7.9 5.6-10 3.4-1.9 6.7-1.5 9.9.3 1.3.7 2.9 1.7 2.1 3.5-.7 1.6-2.2.7-3.5.3-8.4-2.1-11.2.8-9.4 9.2.6 3 1.5 5.8 2.9 8.4 1.6 3 3.9 4.9 7.5 4.8 3.4-.1 4.3-2.5 5.2-5.1.4-1.1.7-3 2.5-2.5 2.1.6 1.4 2.6 1 3.8-1.2 3.4-3.2 6-7 7-3.9 1-7.4.4-10.1-2.6-4.3-4.7-5.9-10.8-6.7-17.1z"/>
  <path fill="#8d6d52" d="M45.8 83.3c-.4-3.2 1.1-6.7 5-8.9 3.3-1.8 6.7-1.8 9.9.1 1.2.7 3 1.5 2.4 3.3-.7 2.1-2.2.9-3.7.6-7.6-2-10.2.5-9.3 8.2.4 3.7 1.6 7.1 3.5 10.2 1.5 2.6 3.8 4.2 6.9 4.2s4.6-2.3 5.5-5c.5-1.4.7-3.4 2.7-2.6 1.8.7 1.1 2.4.7 3.9-2.5 7.7-11.7 9.9-17.1 4-4.5-4.6-6.3-10.4-6.5-18z"/>
  <path fill="#916b4b" d="M259.3 48.5c-1.8-.2-1.8-2-2.2-3.2-2.4-5.8-4.7-11.7-6.7-17.6-1-2.9-2.3-3.8-5-2.3-.9.5-1.9.7-2.8 1-2 .7-2.8-.6-3.3-2.1-.6-1.6.3-2.6 1.7-3.1 5.1-1.9 10.3-3.8 15.5-5.6 1.5-.5 3.2-.7 3.7 1.3.4 1.5.1 3.2-1.8 3.6-5.7 1.1-4.2 4.3-2.7 7.9 2.2 5.4 4.1 10.8 6.1 16.3.7 2 .6 3.6-2.5 3.8z"/>
  <path fill="#3a261a" d="M117.2 145.2c0 1.5.5 2.8-1.3 3.2-2.1.4-3-.7-3.5-2.5-2.1-8.1-4.3-16.3-6.4-24.4-1-3.8-2-7.6-2.8-11.5-.2-1.3-1.3-3.3 1.1-3.8 2.1-.4 3.2.4 3.8 2.7 2.5 10.6 5.2 21.1 7.8 31.6.7 1.6 1 3.4 1.3 4.7z"/>
  <path fill="#3c261a" d="M228.8 117.8c.3 1.4-.2 2.2-1.7 2.4-1.9.3-2.7-.7-3.1-2.4-1.4-5.6-3-11.2-4.4-16.8-1.4-5.6-2.8-11.2-4.1-16.8-.4-1.6-1.5-3.4 1-4 2.3-.6 3.1 1 3.6 3.1 1.9 7.9 3.9 15.7 5.9 23.5 1 3.7 1.9 7.4 2.8 11z"/>
  <path fill="#8c6c51" d="M195.2 36.9c-.2-2.2-.3-3.3 1.4-3.5 1.7-.2 2.2.5 2.5 2.1 1.5 6.7 3.5 13.4 4.8 20.1.6 2.8 1.7 3.1 4 2.6s4.5-.9 6.9-1.2c1.5-.2 2.6.3 2.9 1.9.4 1.8-.8 2-2.2 2.4-8.9 2.6-14.4-.4-16.5-9.2-1.3-5.3-2.7-10.8-3.8-15.2z"/>
  <path fill="#7c2b23" d="M445.8 115.9h-21.3c-1.5 0-3 .1-4.2-1v-2.5c8-1.1 15.9-.2 23.9-.5 3-.1 2 2.2 1.6 4z"/>
  <path fill="#7a2420" d="M1.2 40.3h26.9c0 1.4.5 2.9-.9 4-7.6 0-15.1-.2-22.7 0-3.2 0-4.4-.9-3.3-4z"/>
  <path fill="#422615" d="M320 137.1c0 6.2-3 9.9-8 10-4.7 0-8.8-4-8.9-8.9-.2-4.9 4.8-10.1 9.7-10 4.4 0 7.3 3.6 7.2 8.9z"/>
  <path fill="#452714" d="M343 116.3c.1 5.1-2.3 7.9-6.6 7.9-4 0-7.3-3.2-7.3-7-.1-4.3 3.4-7.9 7.7-8 3.8-.2 6.2 2.5 6.2 7.1zm0 46.7c0 4.3-2.9 7.7-6.7 7.8-3.8.1-7.1-3.2-7.2-7.4-.1-3.9 3.6-8.2 7.1-8.2 3.7 0 6.7 3.5 6.8 7.8z"/>
  <path d="M368 136.8c0 5.4-2 8.2-6.2 8.3-4.6.1-6.9-2.1-6.9-7-.1-5.3 2.4-8.1 7.1-8 4.1.1 6 2.2 6 6.7z" class="st54"/>
  <path fill="#442614" d="M344 137.1c0 5.2-2.2 8-6.5 8-4.5 0-6.6-2.3-6.7-7.2 0-5 2.4-7.7 6.8-7.8 4.3-.1 6.4 2.2 6.4 7zm-12-84.2c0-4.5 5.2-9.6 9.6-9.5 3.8.1 7.4 4.8 7.4 9.7 0 4.8-4 9.2-8.5 9.1-5.5 0-8.6-3.4-8.5-9.3z"/>
  <path fill="#462615" d="M372.9 52.8c0 4.1-3.5 8.2-7 8.3-3.6 0-6.9-3.6-7-7.6-.1-4.2 3.4-8.1 7.1-8.1 3.9-.2 7 3.2 6.9 7.4zm-14.9 26c0-4.4 3.6-8.5 7.4-8.4 2.7.1 6.4 4.2 6.5 7.2.1 4.7-3 8.6-7 8.6-4.2-.1-6.9-2.9-6.9-7.4zm31.9-18.5c-4.3 0-7-2.9-7-7.2 0-3.9 3.4-7.7 6.9-7.8 4-.1 7.1 3.2 7 7.3 0 5.2-2.3 7.8-6.9 7.7z"/>
  <path d="M358 32c.1-4.5 3.1-7.8 7.2-7.7 3.6 0 6.6 3.4 6.6 7.3 0 4.6-2.9 7.7-7.2 7.7-4.5 0-6.7-2.4-6.6-7.3z" class="st54"/>
  <path fill="#f8e7e2" d="M91.4 144.2c.1 1.9-.2 3.8-1.5 5.1-1.5 1.7-3.3 3.8-5.7 3.4-1.8-.3-1.9-2.8-2.4-4.5-1.1-3.8-1.9-7.7-3-11.5-.6-2.1.4-2.6 2.2-2.9 6.2-.8 10.4 3.3 10.4 10.4z"/>
  <path fill="#f7e8e3" d="M84.6 122.1c-.1 2.2-.8 4.1-2.3 5.5-1.2 1.1-2.4 2.5-4.2 2.3-2.4-.3-1.8-2.4-2.1-3.9-.3-1.1-.5-2.2-1.1-3.2-1-1.9-1.8-4.7-.7-5.8 1.9-1.8 5-1.4 7.5-.5 2.7 1 2.5 3.6 2.9 5.6z"/>
  <path fill="#fbe7e5" d="M185 57.9c0 1.3.2 2.7-.1 4-.5 2.4-2 4.3-4.4 5-2.2.7-4.2-.1-5.8-1.9-4.4-5-5.4-10.9-4.3-17.2.4-2.5 2.3-3.9 4.8-4.5 2.6-.6 4.7.5 6.1 2.5 2.6 3.6 4.1 7.6 3.7 12.1z"/>
  <path fill="#fbe6e0" d="M126.1 75.9c.2 2.4-1.1 5.9-5.2 6.9-4.4 1.1-6.6-2.2-8.1-5.7-1.8-4.1-2.9-8.4-1.6-13 .7-2.5 2.1-4.4 4.9-4.9 2.9-.5 4.8.8 6.3 3 2.3 3.6 3.5 7.7 3.7 13.7z"/>
  <path fill="#f4d9cb" d="M231.1 34.7c1.9.9 2.2 2.6 3.2 4 .8 1.1 2.2 2.8.9 3.9-1.1.9-3.1.7-4.8.8-1 .1-1.6-.9-1.2-1.7 1.2-2.2.1-5 1.9-7z"/>
</svg>
