<svg viewBox="0 0 792.2 226.6" xmlns="http://www.w3.org/2000/svg">
  <title>Sally Payne</title>
  <path
    d="M443.4 110.4c-1.1-18.6-2.2-37.2-3.2-55.8-.3-5.6 1.1-7.5 6.5-7.9 10.2-.6 20.3.4 29.8 4.7 5.9 2.7 10.6 6.7 13.8 12.5 6.4 11.6 1.9 25.1-10.2 30.6-4.3 1.9-8.8 2.9-13.4 3.8-3.5.7-4.6 2.4-4.5 5.9.6 15.8.9 31.6 1.4 47.4.3 10-3.6 13.9-13.6 13.9-3.9 0-5.4-1.3-5.2-5.2.7-16.7-.6-33.3-1.4-49.9zM459.9 63s-.1 0 0 0c.7 7.9 1.5 15.9 2.1 23.8.3 4.4 2 4.1 4.9 2 8.9-6.4 9.7-21.1 1.5-29.6-2.1-2.2-4.8-4.9-7.5-4-2.8 1-.9 4.7-1 7.2-.1.2 0 .4 0 .6zM590.1 221c5.2 0 9-.2 12.7.1 4.4.3 7.2-1.6 9.2-5.4 4.1-7.8 5-16.5 6.9-24.9 4.9-21.8 2.6-43.8 2.8-65.7 0-4-1.1-4.9-5.3-3.9-19.9 4.5-33-3.9-37.6-23.9-.8-3.4-1.4-6.9-1.9-10.3-.4-2.7-2.4-6 2.4-7.1 5.5-1.2 9.3.2 10.7 4.5.6 1.7.7 3.6 1 5.4 1.3 7.2 2.2 14.5 6.7 20.7 5.1 7 10.6 7 15.3-.3 4.2-6.4 6.3-13.5 7.8-20.9.9-4.6 7.1-8 11.4-6.4 2 .8 2.6 2.4 2.6 4.4-.4 38.1 2.4 76.4-5.1 114.1-.7 3.4-1.6 6.8-2.9 10-6.4 15.6-21.1 19.9-36.7 9.6zM207.3 92.7c-1.4-24.7-2.5-42.6-1.4-60.6.3-4.3.7-8.6 1.1-12.9.3-3.3.9-6.5 5-7 4-.5 7.2.9 9.1 4.6 1.4 2.7 1.7 5.7 1.9 8.7 2 30.3 4.2 60.5 4.5 90.8.1 10.8.5 21.6.5 32.4 0 4.6-1.7 6.5-6.3 5.8-1-.1-2-.1-3-.2-7.8-.8-9.1-2.1-9.5-9.9-.7-19.5-1.4-38.9-1.9-51.7zM172.9 103.8c.8 10.6 1.4 21.3 2.3 31.9.4 4.6-1.1 6.6-5.8 6.1-2-.2-4-.2-6-.3-3.9-.2-6.2-2.1-6.5-6.1-2.8-37.2-8.7-74.1-9.9-111.4-.2-5.5.1-11 .3-16.5.1-3.5.7-6.8 5.1-7.4 4.3-.5 7.7 1.1 9.3 5.1 1.1 2.6 1.8 5.4 2.1 8.2 3.4 30.1 7.3 60.1 9.1 90.4zM672.6 102.7c2.4-.5 3.1-2.3 4.3-3.6 4.9-5.2 10.6-8.4 17.8-9 10.8-1 18.5 4.1 21.3 14.6 3.7 13.7 5.3 27.8 6.8 41.9.7 6.7-1.4 10.4-5.3 10.9-5.6.8-10.5-3.4-11.3-9.9-1.8-13.4-3.4-26.8-5.1-40.1-.2-1.3-.4-2.7-.8-3.9-1.6-5-4.4-5.6-7.8-1.7-3.2 3.6-6 7.6-7.6 12.2-3.5 10.5-7.7 20.9-8.9 32.1-.5 4.4-3 5.8-7 4-4.9-2.1-8.2-5.5-8.5-11.3-.8-14.3-1.8-28.6-2.6-42.9-.3-5.1 1.2-6.2 6.2-5.1 4 .9 6.4 3.3 7.4 7.2.5 1.4.8 2.9 1.1 4.6zM271 201.7c1.6-3.9 3.9-6.5 6.8-8.5 5.2-3.7 7.9-8.9 9.1-14.9 4.8-23.6 6-47.5 5-71.6-.1-2.9-.2-4.8-4.3-3.3-15.2 5.6-31-4.7-32.6-20.9-.2-2.3-.3-4.7-.4-7-.2-3-.3-5.7 4-5.8 4 0 7.2.7 7.1 5.5 0 5.4.9 10.6 2.6 15.7 1.3 3.9 2.9 7.6 7.8 7.9 5 .4 7.7-2.5 9.5-6.6 1.7-4 3.3-8 4.7-12.1 1-2.7 2.5-4.6 5.2-5.7 4.5-1.8 7.3-.2 7.4 4.7.6 27.6 1.6 55.3-2.2 82.8-.8 6.1-.8 12.3-2.8 18.2-3 9.1-7.4 16.7-18 18.6-2.9.6-5.6 1.9-8.9 3zM23.2 65.2c5 .5 10.3.2 14.3 4.3 1.1 1.2 2.5 2.4 1.6 4.3-.9 1.9-2.7 1.7-4.3 1.6h-.5c-3.7-.5-7.9-2.6-10.7 1.3-3.2 4.4-4 9.8-3.6 15.2.2 3 2.5 4.5 5 5.7 3.6 1.6 7.4 3.1 10.9 4.8 9.2 4.6 12.8 12.8 10.9 23.8-1.8 10.2-8.1 16-18.4 17.3-10.7 1.3-19.6-1.7-26.9-9.7-2.8-3.1-1.2-5.4.6-7.3 2-2.1 3.9.2 5.3 1.7 5.4 5.6 8.7 6.4 15.8 3.5 5.4-2.2 8.8-7.4 8.4-13.4-.4-6.9-3.3-12.5-9.8-15.7-4.5-2.2-9-4.4-12.8-7.6C.8 88.3.4 76.1 8 69.1c4.3-3.9 9.8-3.4 15.2-3.9zM773.6 130.8c-14.2-.8-24.1-7.2-30.6-20.3-4-8-3.8-15.5-2.9-23.6.6-5.5 3.5-9.7 8.6-12 3.6-1.6 7.1-3.7 11-4.7 7.9-2 14.2.3 18.6 7.1 3.2 4.9 4.8 10.6 7.2 15.9 1.1 2.5-.8 2.8-2.2 3.5-6.9 3.6-14.6 4.5-22.2 5.6-4.2.6-4.8 2.7-4.2 6.1.8 4.9 3 9.1 6.8 12.5 5.4 4.7 8.6 4.6 13.6-.6 3.3-3.5 7.3-4.6 11.8-3.5 2.2.5 4.3 1.7 2.1 4.6-4.4 5.7-9.8 9.8-17.6 9.4zm-20-42.8c0 1.2.2 2.3 0 3.5-.7 4.2 1.4 4.8 4.8 3.9 1.1-.3 2.3-.5 3.4-.7 5.1-1.2 6.4-3.7 4.4-8.7-.8-2-2-3.8-3.7-5.2-2-1.6-4.2-2.9-6.8-1.8-2.6 1.1-1.8 3.6-2 5.6-.2 1.1-.1 2.3-.1 3.4zM510.3 123.7c.6-19.3 2.7-38.5 4.8-57.7.4-4 2.8-5 6-2.3 1.2 1 2.1 2.5 2.9 4 10.8 19.7 19.2 40.5 27.7 61.3.8 2 2.4 4.4-1.1 5.8-3.9 1.6-9.2.7-10.7-2.2-1.4-2.6-2.6-5.4-3.6-8.2-1.3-3.8-3.7-5.3-7.6-4.6-1.3.2-2.7.4-4 .3-4.1-.3-6.5.9-6.2 5.6.1 2.2-.9 4.3-3.5 4.7-1.8.3-3.4-.2-4.3-1.8-1.1-1.5-.4-3.3-.4-4.9zM521 83.9c-2.7 9.3-2.5 18.5-1.8 27.6.1 1.7.5 3.4 2.9 3.1 3-.4 6.3 0 9-1.7.2-.1 0-1-.2-1.4-3.3-9.3-6.6-18.4-9.9-27.6zM96.6 84.4c2.6.3 6.7 2.2 11.3 2.2 3.1 0 4.1 3.6 4.9 6.3 2.3 7.6 4.4 15.3 6.4 23 .7 2.7 2.6 6.4-.6 7.9-3.6 1.7-8.8 2.7-11.6-1.1-3-4.2-5.6-3.2-9.4-1.8-8.9 3.3-18.1-.4-21.9-8.5-4.2-8.7-1.2-19 7-23.9 3.7-2.3 7.6-4.3 13.9-4.1zM98 97.2c-.5-1.5 1.1-3.9-1.2-4.7-2.7-.9-5.6-.6-8 1.5-5.7 5-6.3 14.6-1.3 20.3 1.6 1.9 2.7 1.8 4.2 0 4.1-4.9 6-10.6 6.3-17.1z"
  />
</svg>
