<svg viewBox="0 0 128 128" 
  xmlns="http://www.w3.org/2000/svg">
  <title>Pinterest</title>
  <path d="M64,0C28.7,0,0,28.7,0,64c0,27.1,16.9,50.3,40.7,59.6c0,0,0-0.1,0-0.1c-0.5-4-1.1-12.8,0.2-18.3
	c1.2-5,7.5-31.8,7.5-31.8s-1.9-3.8-1.9-9.5c0-8.9,5.2-15.5,11.6-15.5c5.5,0,8.1,4.1,8.1,9c0,5.5-3.5,13.7-5.3,21.3
	c-1.5,6.4,3.2,11.5,9.5,11.5c11.4,0,20.1-12,20.1-29.3c0-15.3-11-26-26.7-26c-18.2,0-28.9,13.7-28.9,27.8c0,5.5,2.1,11.4,4.8,14.6
	c0.5,0.6,0.6,1.2,0.4,1.8c-0.5,2-1.6,6.4-1.8,7.3c-0.3,1.2-0.9,1.4-2.1,0.9c-8-3.7-13-15.4-13-24.8c0-20.2,14.7-38.7,42.3-38.7
	c22.2,0,39.4,15.8,39.4,36.9c0,22-13.9,39.8-33.2,39.8c-6.5,0-12.6-3.4-14.7-7.3c0,0-3.2,12.2-4,15.2c-1.4,5.6-6.2,14.1-7.9,16.8
	c0,0,0,0,0,0.1c6,1.9,12.4,2.9,19,2.9c35.3,0,64-28.7,64-64C128,28.7,99.3,0,64,0z" />
</svg>