<svg viewBox="0 0 128 128" 
  xmlns="http://www.w3.org/2000/svg">
  <title>Instagram</title>
  <style type="text/css">
    .st2 {
      fill: url(#SVGID_1_);
    }
    .st3 {
      fill: url(#SVGID_2_);
    }
    .st4 {
      fill: url(#SVGID_3_);
    }
  </style>
  <g class="sp-c-footer__social__item__g1">
    <path d="M82.3,30.7H45.7c-8.3,0-15,6.7-15,15v36.7c0,8.3,6.7,15,15,15h36.7c8.3,0,15-6.7,15-15V45.7
        C97.3,37.4,90.6,30.7,82.3,30.7z M64,84c-11,0-20-9-20-20c0-11,9-20,20-20s20,9,20,20C84,75,75,84,64,84z M85.2,47.3
        c-2.5,0-4.6-2.1-4.6-4.6s2.1-4.6,4.6-4.6s4.6,2.1,4.6,4.6S87.8,47.3,85.2,47.3z" />
    <circle cx="64" cy="64" r="13.3" />
    <path d="M64,0C28.7,0,0,28.7,0,64c0,35.3,28.7,64,64,64s64-28.7,64-64C128,28.7,99.3,0,64,0z M104,82.3c0,11.9-9.7,21.7-21.7,21.7
        H45.7C33.7,104,24,94.3,24,82.3V45.7C24,33.7,33.7,24,45.7,24h36.7c11.9,0,21.7,9.7,21.7,21.7V82.3z" />
  </g>
  <g class="sp-c-footer__social__item__g2">
    <linearGradient id="SVGID_1_" gradientUnits="userSpaceOnUse" x1="40.754" y1="97.1993" x2="87.246" y2="30.8017">
      <stop offset="0" style="stop-color:#FFB900" />
      <stop offset="1" style="stop-color:#9100EB" />
    </linearGradient>
    <path class="st2" d="M82.3,30.7H45.7c-8.3,0-15,6.7-15,15v36.7c0,8.3,6.7,15,15,15h36.7c8.3,0,15-6.7,15-15V45.7
            C97.3,37.4,90.6,30.7,82.3,30.7z M64,84c-11,0-20-9-20-20c0-11,9-20,20-20s20,9,20,20C84,75,75,84,64,84z M85.2,47.3
            c-2.5,0-4.6-2.1-4.6-4.6s2.1-4.6,4.6-4.6s4.6,2.1,4.6,4.6S87.8,47.3,85.2,47.3z" />
    <linearGradient id="SVGID_2_" gradientUnits="userSpaceOnUse" x1="56.355" y1="74.9184" x2="71.6452" y2="53.0817">
      <stop offset="0" style="stop-color:#FFB900" />
      <stop offset="1" style="stop-color:#9100EB" />
    </linearGradient>
    <circle class="st3" cx="64" cy="64" r="13.3" />
    <linearGradient id="SVGID_3_" gradientUnits="userSpaceOnUse" x1="27.288" y1="116.4302" x2="100.712" y2="11.5697">
      <stop offset="0" style="stop-color:#FFB900" />
      <stop offset="1" style="stop-color:#9100EB" />
    </linearGradient>
    <path class="st4" d="M64,0C28.7,0,0,28.7,0,64c0,35.3,28.7,64,64,64s64-28.7,64-64C128,28.7,99.3,0,64,0z M104,82.3
            c0,11.9-9.7,21.7-21.7,21.7H45.7C33.7,104,24,94.3,24,82.3V45.7C24,33.7,33.7,24,45.7,24h36.7c11.9,0,21.7,9.7,21.7,21.7V82.3z" />
  </g>
</svg>